<svg width="23" height="9" viewBox="0 0 23 9" fill="none" xmlns="http://www.w3.org/2000/svg">
<path d="M22.7685 3.94105L19.7096 0.882128C19.4009 0.57347 18.9003 0.57347 18.5917 0.882128C18.283 1.19085 18.283 1.6913 18.5917 2.00002L20.3012 3.70954L0.790457 3.70954C0.353935 3.70954 0 4.06347 0 4.5C0 4.93645 0.353935 5.29045 0.790457 5.29045H10.5458L20.3012 5.29045L18.5918 6.99997C18.2831 7.30869 18.2831 7.80914 18.5918 8.11787C18.7461 8.2721 18.9485 8.34937 19.1507 8.34937C19.353 8.34937 19.5553 8.2721 19.7097 8.11787L22.7685 5.05894C23.0772 4.75022 23.0772 4.24977 22.7685 3.94105Z" fill="white"/>
</svg>
