<svg width="24" height="24" viewBox="0 0 24 24" fill="none" xmlns="http://www.w3.org/2000/svg">
<path d="M17.533 11.3321C17.2203 8.78074 15.2067 6.77214 12.6545 6.46591C12.4347 6.44083 12.2137 6.42827 11.9925 6.42822C9.73701 6.43169 7.70611 7.79482 6.84839 9.88089C5.99068 11.967 6.47541 14.3644 8.07619 15.9535C8.92744 16.7687 9.41493 17.8921 9.42886 19.0706V19.7144H14.5717V19.0673C14.5756 17.9111 15.046 16.8053 15.8763 16.0006C17.1304 14.7906 17.7438 13.0622 17.533 11.3323V11.3321H17.533Z" fill="#AB9B77"/>
<path d="M12.0013 24.0002C12.546 23.9996 13.0314 23.6564 13.2136 23.1431H10.7891C10.9712 23.6564 11.4566 23.9996 12.0013 24.0002Z" fill="#AB9B77"/>
<path d="M9.85742 21.8575C9.85775 22.0941 10.0494 22.2858 10.286 22.2861H13.7146C13.9511 22.2858 14.1428 22.0941 14.1431 21.8575V20.5718H9.85742V21.8575Z" fill="#AB9B77"/>
<path d="M11.9997 3.85716C12.4731 3.85716 12.8569 3.47339 12.8569 3V0.857156C12.8569 0.383766 12.4731 0 11.9997 0C11.5263 0 11.1426 0.383766 11.1426 0.857156V3C11.1426 3.47339 11.5263 3.85716 11.9997 3.85716Z" fill="#AB9B77"/>
<path d="M4.7662 5.97844C5.10539 6.30239 5.6393 6.30239 5.97848 5.97844C6.13927 5.8177 6.22959 5.59964 6.22959 5.3723C6.22959 5.14495 6.13927 4.92689 5.97848 4.76616L4.46316 3.25111C4.30247 3.09033 4.08445 3 3.85716 3C3.62986 3 3.41184 3.09033 3.25111 3.25111C3.09033 3.4118 3 3.62981 3 3.85716C3 4.0845 3.09033 4.30247 3.25111 4.4632L4.7662 5.97844Z" fill="#AB9B77"/>
<path d="M3.85716 12.0002C3.85716 11.5268 3.47339 11.1431 3 11.1431H0.857156C0.383953 11.1435 0.00046875 11.527 0 12.0002C0.00046875 12.4734 0.383953 12.8569 0.857156 12.8574H3C3.47339 12.8574 3.85716 12.4736 3.85716 12.0002Z" fill="#AB9B77"/>
<path d="M5.59477 17.7981C5.29852 17.719 4.98258 17.804 4.76616 18.0213L3.25111 19.5366C3.09033 19.6973 3 19.9153 3 20.1426C3 20.37 3.09033 20.5879 3.25111 20.7487C3.59021 21.0726 4.12407 21.0726 4.46316 20.7487L5.97845 19.2336C6.19567 19.0172 6.28079 18.7013 6.20162 18.405C6.12245 18.1088 5.89102 17.8773 5.59477 17.7981Z" fill="#AB9B77"/>
<path d="M19.234 18.0218C19.0176 17.8046 18.7017 17.7194 18.4054 17.7986C18.1092 17.8778 17.8778 18.1092 17.7986 18.4054C17.7194 18.7017 17.8045 19.0176 18.0218 19.234L19.5371 20.7491C19.8762 21.073 20.41 21.073 20.7491 20.7491C20.9099 20.5884 21.0002 20.3704 21.0002 20.143C21.0002 19.9157 20.9099 19.6977 20.7491 19.537L19.234 18.0218Z" fill="#AB9B77"/>
<path d="M23.1426 11.1431H20.9997C20.5263 11.1431 20.1426 11.5268 20.1426 12.0002C20.1426 12.4736 20.5263 12.8574 20.9997 12.8574H23.1426C23.616 12.8574 23.9997 12.4736 23.9997 12.0002C23.9997 11.5268 23.616 11.1431 23.1426 11.1431Z" fill="#AB9B77"/>
<path d="M19.2349 5.97842L20.75 4.46314C20.9665 4.24662 21.0511 3.93106 20.9718 3.63528C20.8925 3.3395 20.6615 3.1085 20.3657 3.02923C20.07 2.94997 19.7544 3.03453 19.5379 3.25104L18.0226 4.76609C17.8618 4.92683 17.7715 5.14489 17.7715 5.37223C17.7715 5.59958 17.8618 5.81764 18.0226 5.97837C18.3618 6.30237 18.8958 6.30237 19.2349 5.97842Z" fill="#AB9B77"/>
</svg>
