<svg width="20" height="20" viewBox="0 0 20 20" fill="none" xmlns="http://www.w3.org/2000/svg">
<path d="M19.9655 0.280909C19.8955 0.110923 19.7291 0 19.5455 0C1.90458 0 0 7.31093 0 10.4545C0 11.5855 0.250909 12.6418 0.746379 13.5936C0.822742 13.7409 0.973638 13.8345 1.13911 13.8382C1.29546 13.8336 1.46003 13.7555 1.54274 13.6109C2.73367 11.5527 6.10637 6.47272 11.6764 3.77365C11.9046 3.66456 12.1773 3.75819 12.2855 3.98276C12.3946 4.20912 12.3 4.48185 12.0746 4.59094C11.6546 4.79459 11.251 5.0164 10.8555 5.24638C10.7046 5.33455 10.5582 5.42822 10.4101 5.52001C10.1873 5.6582 9.96734 5.79908 9.75278 5.94457C9.53916 6.08822 9.32822 6.23549 9.12095 6.38639C9.05639 6.43364 8.9946 6.48184 8.93093 6.53004C3.38728 10.6609 0 17.2509 0 19.5455C0 19.7964 0.203651 20.0001 0.45456 20.0001C0.70547 20.0001 0.90912 19.7964 0.90912 19.5455C0.90912 18.8127 1.40821 17.3273 2.35274 15.5555C3.72367 16.6764 5.5682 17.2728 7.72731 17.2728C13.5646 17.2728 14.7873 11.7182 15.4437 8.73368C16.3273 4.71729 18.2719 2.37094 19.8664 0.775484C19.9973 0.645469 20.0355 0.450895 19.9655 0.280909Z" fill="#AB9B77"/>
</svg>
