<svg width="24" height="24" viewBox="0 0 24 24" fill="none" xmlns="http://www.w3.org/2000/svg">
<path d="M16.2792 17.1939L13.3691 16.1026C13.3509 16.0954 13.3334 16.0866 13.3166 16.0764L10.0729 14.2764L8.79039 14.5951L7.55664 15.5214L8.21664 17.8314L9.30039 19.2751C9.34212 19.3311 9.36738 19.3976 9.37335 19.4672C9.37931 19.5368 9.36573 19.6066 9.33414 19.6689L8.59914 21.1426L8.24289 22.2076C9.97892 22.6625 11.8116 22.5854 13.5032 21.9863C15.1949 21.3872 16.6676 20.2937 17.7304 18.8476L16.2792 17.1939Z" fill="#AB9B77"/>
<path d="M20.25 6C21.4926 6 22.5 4.99264 22.5 3.75C22.5 2.50736 21.4926 1.5 20.25 1.5C19.0074 1.5 18 2.50736 18 3.75C18 4.99264 19.0074 6 20.25 6Z" fill="#AB9B77"/>
<path d="M18.6331 6.27371C18.2686 6.04039 17.9589 5.73078 17.7256 5.36621L16.6719 7.32747L18.6331 6.27371Z" fill="#AB9B77"/>
<path d="M19.0581 16.275L17.7194 14.1338L16.4031 13.1475L14.3106 13.4963C14.2175 13.5107 14.1223 13.4893 14.0444 13.4363L11.7944 11.9363C11.7428 11.9023 11.7004 11.8561 11.671 11.8018C11.6415 11.7475 11.6259 11.6868 11.6256 11.625V9.37502C11.6263 9.34987 11.6288 9.3248 11.6331 9.30002L11.9931 7.50002L11.6331 5.70002C11.6191 5.6312 11.6243 5.55984 11.6481 5.49377L11.9744 4.62377C10.6731 4.40991 9.34079 4.48286 8.07063 4.83752L8.61062 6.64127C8.62553 6.69622 8.62936 6.75358 8.62188 6.81002L8.24687 9.06002C8.23063 9.14906 8.1843 9.22982 8.11562 9.28877L6.00063 11.0513V13.125C5.9999 13.1657 5.99359 13.2061 5.98187 13.245L5.23187 15.495C5.20593 15.5713 5.15593 15.6371 5.08938 15.6825L2.45312 17.5275C3.50085 19.6182 5.32022 21.2197 7.52688 21.9938L7.89437 20.88C7.90103 20.8634 7.90854 20.8471 7.91688 20.8313L8.56188 19.5413L7.57563 18.225C7.54825 18.1878 7.52791 18.1458 7.51563 18.1013L6.76563 15.4763C6.74456 15.4036 6.7462 15.3262 6.77033 15.2545C6.79445 15.1828 6.83992 15.1202 6.90062 15.075L8.40062 13.95C8.44086 13.9199 8.48678 13.8982 8.53563 13.8863L10.0356 13.5113C10.1283 13.4881 10.2263 13.5015 10.3094 13.5488L13.6581 15.4088L16.6319 16.5225C16.6895 16.5451 16.741 16.5811 16.7819 16.6275L18.1656 18.2063C18.5389 17.6003 18.8385 16.952 19.0581 16.275Z" fill="#AB9B77"/>
<path d="M19.5 13.5C19.4977 11.4073 18.7656 9.38099 17.43 7.77L15.9263 8.58C15.8721 8.60924 15.8116 8.62469 15.75 8.625C15.6505 8.62461 15.5551 8.58562 15.4838 8.51625C15.427 8.45911 15.3902 8.38523 15.3787 8.30554C15.3672 8.22585 15.3817 8.14458 15.42 8.07375L16.23 6.56625C15.2054 5.71842 14.0052 5.10875 12.7162 4.78125L12.39 5.655L12.7425 7.425C12.7538 7.47437 12.7538 7.52563 12.7425 7.575L12.375 9.4125V11.4225L14.3362 12.7312L16.44 12.3787C16.5407 12.3641 16.6431 12.3897 16.725 12.45L18.225 13.575C18.2618 13.6031 18.2936 13.6374 18.3187 13.6762L19.32 15.2775C19.4383 14.6924 19.4986 14.097 19.5 13.5Z" fill="#AB9B77"/>
<path d="M5.24983 10.875C5.24953 10.8199 5.26149 10.7654 5.28483 10.7154C5.30818 10.6655 5.34234 10.6214 5.38483 10.5862L7.52608 8.80123L7.86733 6.77248L7.35733 5.07373C6.23429 5.49222 5.20615 6.1308 4.33323 6.95199C3.46031 7.77318 2.7602 8.76045 2.27397 9.85586C1.78774 10.9513 1.52519 12.1328 1.50173 13.331C1.47826 14.5293 1.69436 15.7201 2.13733 16.8337L4.55983 15.1387L5.24983 13.065V10.875Z" fill="#AB9B77"/>
</svg>
