<svg width="24" height="24" viewBox="0 0 24 24" fill="none" xmlns="http://www.w3.org/2000/svg">
<path d="M22.8123 11.51L16.2127 4.17705C16.0719 4.02159 15.8753 3.93359 15.6671 3.93359H11.2673C10.9784 3.93359 10.7159 4.10372 10.5971 4.3677C10.4798 4.63316 10.5282 4.94261 10.7218 5.15673L16.88 11.9998L10.7218 18.8415C10.5282 19.0571 10.4783 19.3665 10.5971 19.6305C10.7159 19.896 10.9784 20.0661 11.2673 20.0661H15.6671C15.8753 20.0661 16.0719 19.9766 16.2127 19.8241L22.8123 12.4911C23.0631 12.2125 23.0631 11.7872 22.8123 11.51Z" fill="#AB9B77"/>
<path d="M13.2791 11.51L6.67946 4.17705C6.53867 4.02159 6.34215 3.93359 6.13389 3.93359H1.73412C1.4452 3.93359 1.18268 4.10372 1.06389 4.3677C0.946561 4.63316 0.994958 4.94261 1.18855 5.15673L7.34676 11.9998L1.18855 18.8415C0.994958 19.0571 0.945094 19.3665 1.06389 19.6305C1.18268 19.896 1.4452 20.0661 1.73412 20.0661H6.13389C6.34215 20.0661 6.53867 19.9766 6.67946 19.8241L13.2791 12.4911C13.5299 12.2125 13.5299 11.7872 13.2791 11.51Z" fill="#AB9B77"/>
</svg>
