<svg width="30" height="24" viewBox="0 0 30 24" fill="none" xmlns="http://www.w3.org/2000/svg">
<path d="M28.75 20H15.25C14.5597 20 14 20.5596 14 21.25C14 21.9404 14.5596 22.5 15.25 22.5H28.75C29.4403 22.5 30 21.9404 30 21.25C30 20.5596 29.4404 20 28.75 20Z" fill="white"/>
<path d="M28.75 11H1.25C0.559644 11 0 11.5596 0 12.25C0 12.9404 0.559645 13.5 1.25 13.5H28.75C29.4404 13.5 30 12.9404 30 12.25C30 11.5596 29.4404 11 28.75 11Z" fill="white"/>
<path d="M28.75 1.5H1.25C0.559644 1.5 0 2.05964 0 2.75C0 3.44036 0.559645 4 1.25 4H28.75C29.4404 4 30 3.44036 30 2.75C30 2.05964 29.4404 1.5 28.75 1.5Z" fill="white"/>
</svg>
