<svg width="18" height="18" viewBox="0 0 18 18" fill="none" xmlns="http://www.w3.org/2000/svg">
<path d="M16.9999 10.0001H9.99996V17C9.99996 17.5523 9.55225 18 8.99995 18C8.44764 18 7.99993 17.5523 7.99993 17V10H1.00002C0.447713 10.0001 0 9.55236 0 9.00005C0 8.44775 0.447713 8.00004 1.00002 8.00004H7.99999V1.00006C7.99999 0.447763 8.4477 4.95911e-05 9 4.95911e-05C9.55231 4.95911e-05 10 0.447763 10 1.00006V8.00004H17C17.5523 8.00004 18 8.44775 18 9.00005C18 9.55236 17.5522 10.0001 16.9999 10.0001Z" fill="black"/>
</svg>
