<svg width="17" height="9" viewBox="0 0 17 9" fill="none" xmlns="http://www.w3.org/2000/svg">
<path d="M16.7685 3.94105L13.7096 0.882128C13.4009 0.57347 12.9003 0.57347 12.5917 0.882128C12.283 1.19085 12.283 1.6913 12.5917 2.00002L14.3012 3.70954L0.790457 3.70954C0.353935 3.70954 0 4.06347 0 4.5C0 4.93645 0.353935 5.29045 0.790457 5.29045H4.54583L14.3012 5.29045L12.5918 6.99997C12.2831 7.30869 12.2831 7.80914 12.5918 8.11787C12.7461 8.2721 12.9485 8.34937 13.1507 8.34937C13.353 8.34937 13.5553 8.2721 13.7097 8.11787L16.7685 5.05894C17.0772 4.75022 17.0772 4.24977 16.7685 3.94105Z" fill="white"/>
</svg>
