<svg xmlns="http://www.w3.org/2000/svg" >
    <symbol xmlns="http://www.w3.org/2000/svg" id="logo" viewBox="0 0 198 34">
        <path d="M31.0365 24.4821C31.0365 25.0923 31.0365 25.691 31.0365 26.2955C31.0365 26.9 31.0365 27.4988 31.0365 28.1033C31.0365 28.7078 31.0365 29.3066 31.0365 29.9111C31.0365 30.5156 31.0365 31.1144 31.0365 31.7189C31.0365 32.3234 31.0365 32.9222 31.0365 33.5267H30.8656L30.2959 33.4297C30.2422 33.4177 30.1917 33.3944 30.1478 33.3613C30.0765 33.3091 29.9942 33.2743 29.9072 33.2594C29.8202 33.2446 29.7309 33.2502 29.6465 33.2757C29.549 33.2975 29.4536 33.328 29.3616 33.367C29.2482 33.4152 29.1378 33.4705 29.0312 33.5324C28.4534 33.8878 27.7745 34.0422 27.1 33.9715C26.3698 33.9072 25.6481 33.7677 24.9465 33.5552L23.6306 33.1902C23.4441 33.1433 23.2531 33.1166 23.0609 33.1104C22.0127 33.0476 20.9644 33.0419 19.9105 33.0704C19.1326 33.0808 18.357 33.1571 17.5919 33.2986C17.3647 33.3473 17.1403 33.4082 16.9197 33.481C16.29 33.6882 15.6411 33.8315 14.9827 33.9088C14.3082 33.9923 13.6279 34.019 12.949 33.9886C11.979 33.9679 11.0181 33.7967 10.1005 33.481C9.72787 33.3516 9.37061 33.1814 9.03522 32.9735C8.48657 32.6253 7.88956 32.3601 7.26349 32.1865C7.05841 32.1295 6.85332 32.0668 6.64823 31.9983C6.40176 31.9174 6.17396 31.788 5.97828 31.6175C5.78259 31.4471 5.62298 31.2392 5.50886 31.006C5.42341 30.8407 5.35505 30.6696 5.28099 30.4985C5.16705 30.2248 5.06451 29.9282 4.94487 29.683C4.87911 29.5352 4.80296 29.3923 4.717 29.2553C4.53039 28.9483 4.23568 28.7225 3.89095 28.6223C3.73666 28.5729 3.57849 28.5367 3.41811 28.5139C2.88498 28.4143 2.38656 28.1786 1.97111 27.8296C1.42152 27.3623 0.983522 26.7777 0.68932 26.1187C0.340656 25.405 0.133642 24.6303 0.079756 23.8376C0 22.8454 0 21.8417 0 20.8323C0 18.6253 0 16.4126 0.0569686 14.2056C0.0569686 13.1563 0.0968466 12.1013 0.136725 11.052C0.179992 10.0144 0.458577 9.00035 0.951375 8.08655C1.31089 7.42539 1.75732 6.81547 2.27874 6.27306C3.47241 5.00443 4.90518 3.98494 6.49442 3.2734C7.30134 2.92687 8.13855 2.65579 8.99534 2.4636L10.6702 2.09292C10.9544 2.02691 11.2326 1.93725 11.502 1.82489C11.8566 1.67942 12.1669 1.44347 12.4021 1.14056C12.5775 0.92254 12.8047 0.751972 13.0629 0.644415C13.4392 0.476404 13.8355 0.357571 14.2421 0.290842C14.9364 0.162074 15.6389 0.0820399 16.3443 0.0513251C17.3868 0 18.4293 0 19.4662 0C20.0871 0 20.7024 0.0456223 21.3176 0.0741362C21.9329 0.10265 22.6165 0.14257 23.2603 0.188192C23.7559 0.222409 24.2458 0.262328 24.7358 0.30795L26.0289 0.416303C26.422 0.45052 26.8151 0.496142 27.2025 0.536062L28.678 0.690037L30.0794 0.855418L31.2188 1.00369C31.8921 1.09743 32.5597 1.2288 33.2184 1.39718C35.3719 1.91882 37.4704 2.64642 39.4849 3.56994C40.5844 4.06112 41.6402 4.6449 42.641 5.31499C43.3456 5.77623 44.0004 6.30945 44.595 6.90607C45.0899 7.39734 45.5051 7.96305 45.8255 8.58269C45.9574 8.84776 46.0642 9.1246 46.1446 9.40959C46.2664 9.86413 46.4187 10.3099 46.6003 10.744C46.6877 10.9379 46.7788 11.128 46.8737 11.3143C47.0425 11.6293 47.2641 11.9128 47.5289 12.1526L47.8137 12.4207C48.0932 12.7046 48.2697 13.074 48.3151 13.47C48.3692 13.9227 48.3692 14.3802 48.3151 14.8329C48.2581 15.5629 48.1783 16.2929 48.1214 17.0228C48.0758 17.5931 48.0473 18.1634 48.0131 18.7336C47.9505 19.8172 47.9106 20.895 47.9106 21.9785C47.9106 22.6286 47.9106 23.2788 47.9106 23.9289C47.9162 24.4549 47.8704 24.9801 47.7739 25.4971C47.7288 25.7638 47.6523 26.0241 47.546 26.2727C47.3795 26.6837 47.0937 27.0353 46.7256 27.2821C46.5889 27.3734 46.4351 27.4589 46.2927 27.5444L45.9679 27.7212C45.6604 27.8868 45.4057 28.1359 45.2331 28.4398C45.1377 28.6169 45.021 28.7816 44.8855 28.9302C44.658 29.1853 44.3708 29.3798 44.0496 29.4963C43.7284 29.6127 43.3834 29.6475 43.0455 29.5975C42.583 29.5392 42.1362 29.392 41.7295 29.164L41.4219 29.0158L31.2928 24.5562C31.2164 24.5071 31.1273 24.4813 31.0365 24.4821ZM1.78312 26.0845V26.1187L1.73184 26.0275C1.68057 25.8564 1.61791 25.691 1.57803 25.52C1.44582 24.9598 1.41304 24.3807 1.48118 23.8091C1.53454 23.1118 1.75327 22.4374 2.11923 21.8417C2.26735 21.6021 2.39268 21.3455 2.51801 21.0889C2.88261 20.3133 3.18454 19.5092 3.48078 18.7051C3.48078 18.6652 3.48078 18.6196 3.52066 18.5854C3.5228 18.5683 3.5228 18.5511 3.52066 18.534L2.23317 17.2737C2.20817 17.2589 2.18136 17.2474 2.15341 17.2395C2.15341 17.2794 2.15341 17.3137 2.15341 17.3422C1.9996 18.0208 1.80021 18.6823 1.58373 19.3495C1.47574 19.7262 1.28056 20.072 1.01404 20.3589C0.978579 20.3935 0.951043 20.4354 0.933338 20.4817C0.915633 20.528 0.908181 20.5775 0.911497 20.627C0.911497 21.7276 0.911497 22.8225 1.00834 23.9175C1.0685 24.6195 1.27416 25.3012 1.61221 25.9192C1.62458 25.9468 1.64196 25.972 1.66348 25.9933C1.66348 25.9933 1.70336 25.9933 1.72615 25.9933C1.74894 25.9933 1.70906 26.0788 1.78312 26.0845ZM45.0052 9.12445C45.0081 9.10174 45.0081 9.07874 45.0052 9.05602L44.9026 8.85072C44.6317 8.37319 44.2984 7.934 43.9114 7.54478C43.481 7.11005 43.014 6.71319 42.5157 6.3586C41.5915 5.70357 40.6117 5.13109 39.5875 4.64777C37.6872 3.7309 35.7031 2.99946 33.6627 2.4636C32.4996 2.15677 31.3151 1.93755 30.1193 1.80778C29.6635 1.76216 29.2135 1.69373 28.7634 1.6424L27.3107 1.48843L26.2055 1.38007C25.784 1.34015 25.3624 1.29453 24.9408 1.26032L23.5109 1.14056L21.7335 1.0208L20.2068 0.952365C18.7182 0.882944 17.2268 0.901986 15.7404 1.00939C15.2621 1.04751 14.7866 1.11416 14.3162 1.20899C14.1897 1.22056 14.0673 1.25947 13.9573 1.32305C14.0257 1.49413 14.094 1.66521 14.1567 1.8363L14.584 2.93693C14.5999 2.98753 14.6132 3.03893 14.6238 3.09091C14.6238 3.09091 14.5783 3.15364 14.5555 3.13653C14.5096 3.10942 14.4658 3.07892 14.4244 3.04529L13.5984 2.28111L13.1028 1.79067L13.0059 1.88762C12.8583 2.05658 12.6899 2.20605 12.5046 2.33244C12.2155 2.52801 11.9012 2.68341 11.5703 2.79436C11.1092 2.94471 10.6392 3.0666 10.1632 3.15934C9.59351 3.2848 8.98964 3.41597 8.40856 3.57565C6.27368 4.17337 4.34923 5.35888 2.85413 6.99732C2.24526 7.64777 1.7692 8.41103 1.4527 9.24421C1.05821 10.3403 0.969582 11.5232 1.19634 12.6659C1.28749 13.1734 1.42421 13.6696 1.56664 14.1714C1.65802 14.4339 1.72105 14.7053 1.75463 14.9812C1.76406 15.1356 1.81743 15.284 1.90845 15.4089C2.04517 15.5971 2.1762 15.791 2.32432 15.9792C2.95957 16.7263 3.64477 17.4294 4.37519 18.0835C4.40531 18.1109 4.43771 18.1357 4.47203 18.1577L4.65433 18.0607C5.05713 17.8236 5.48515 17.6323 5.93043 17.4904C6.60266 17.2908 7.26919 17.0798 7.94142 16.8688L8.12942 16.8061V16.7719L7.94712 16.6236C7.32501 16.1761 6.75211 15.6638 6.23806 15.0953C5.81772 14.6309 5.4631 14.1108 5.18414 13.5498C4.92453 13.0322 4.76049 12.472 4.69991 11.896C4.63001 11.1458 4.74544 10.3898 5.03602 9.69473C5.36318 8.93374 5.83312 8.24262 6.42036 7.65884C7.13821 6.93287 7.95996 6.31784 8.85861 5.83395C10.2278 5.10096 11.7015 4.58354 13.2281 4.2999C14.0712 4.13452 14.9372 4.00335 15.7689 3.91781C16.4354 3.85508 17.1077 3.79805 17.7742 3.75243C18.68 3.6954 19.5801 3.6897 20.4859 3.6897C21.4885 3.6897 22.4912 3.73532 23.4938 3.80376C24.1148 3.84368 24.7358 3.90641 25.3567 3.97484C25.9777 4.04327 26.6784 4.12882 27.3335 4.22576C28.2336 4.35503 29.128 4.52041 30.0167 4.72191C31.5163 5.04458 32.99 5.47726 34.4261 6.01644C35.627 6.4631 36.7829 7.02257 37.8784 7.68735C39.0037 8.36885 40.0133 9.22551 40.8693 10.2251C41.1821 10.5806 41.4642 10.9622 41.7124 11.3656C41.9291 11.7235 42.1013 12.1065 42.2251 12.5062C42.3981 13.0406 42.4302 13.6107 42.3184 14.1612C42.2066 14.7117 41.9547 15.224 41.5871 15.6484C41.4174 15.8716 41.2266 16.0778 41.0174 16.2643C40.5762 16.6389 40.0902 16.9569 39.5704 17.211L39.3653 17.3194L39.4052 17.365L39.5704 17.4505C40.3085 17.8175 41.0239 18.2289 41.7124 18.6823C41.8353 18.7653 41.9672 18.8341 42.1055 18.8876C42.29 18.9731 42.4949 19.0046 42.6966 18.9783C42.8982 18.9521 43.0883 18.8692 43.2449 18.7393C43.3474 18.6595 43.4556 18.5854 43.5639 18.5112C43.8566 18.3058 44.1948 18.1746 44.5494 18.1292C44.6858 18.1113 44.821 18.0847 44.9539 18.0493C45.493 17.908 46.0038 17.6745 46.4636 17.3593C46.6873 17.2055 46.8761 17.0061 47.0175 16.7741C47.1589 16.5422 47.2497 16.283 47.2839 16.0134C47.3352 15.734 47.3466 15.4431 47.3751 15.1637C47.3836 15.0251 47.3836 14.886 47.3751 14.7474C47.352 14.1992 47.2562 13.6565 47.0902 13.1335C47.0643 13.0354 47.0086 12.9477 46.9307 12.8826C46.4765 12.4701 46.1136 11.967 45.8654 11.4056C45.6865 11.0126 45.5324 10.6088 45.404 10.1966C45.404 10.1453 45.3584 10.0996 45.3356 10.0426H44.6577H43.8031C43.7425 10.0484 43.6815 10.0484 43.6208 10.0426C43.6208 10.0426 43.5696 10.0027 43.5297 9.96847C43.5901 9.92337 43.6529 9.88149 43.7177 9.84301L44.6463 9.32975L45.0052 9.12445ZM26.5758 16.5381L26.103 16.5837C25.3396 16.6578 24.5819 16.7377 23.8243 16.7947C22.9242 16.8574 22.0241 16.8973 21.1183 16.9088C19.6593 16.9373 18.1999 16.8744 16.7488 16.7206C15.9365 16.6288 15.1314 16.4821 14.339 16.2814C13.6559 16.1179 12.9944 15.8749 12.3679 15.5572C11.8822 15.3162 11.441 14.9941 11.0633 14.6048C10.6647 14.1907 10.3852 13.6764 10.2543 13.1164C10.0939 12.3686 10.1695 11.5895 10.4708 10.8866C10.7086 10.3141 11.0683 9.80028 11.5247 9.38108C12.0335 8.90272 12.6093 8.5012 13.2338 8.1892C13.9953 7.8152 14.7932 7.52089 15.6151 7.31097C16.8185 6.9968 18.0455 6.78128 19.2839 6.66655C20.1441 6.58672 20.9929 6.5468 21.8702 6.52969C22.7476 6.51258 23.5394 6.52969 24.3712 6.60382C25.1061 6.64374 25.8353 6.71788 26.5588 6.80912C27.4304 6.92318 28.2963 7.07145 29.1565 7.26535C30.1796 7.49528 31.1833 7.80415 32.1588 8.1892C33.1376 8.57499 34.0491 9.11396 34.8591 9.78598C35.2294 10.0889 35.5639 10.4333 35.856 10.8125C36.0638 11.0825 36.2254 11.385 36.3346 11.7078C36.4293 11.9828 36.4616 12.2755 36.4291 12.5645C36.3965 12.8536 36.3 13.1317 36.1466 13.3787C36.0373 13.5572 35.9094 13.7236 35.7649 13.8749C35.5545 14.0895 35.3214 14.2807 35.0699 14.4452C34.8062 14.6208 34.5301 14.7771 34.2438 14.9128L34.033 15.0268C35.5541 15.637 37.0296 16.2643 38.4709 16.9373H38.5506C39.2461 16.6787 39.8961 16.311 40.4762 15.848C40.7958 15.5911 41.0726 15.285 41.2965 14.9413C41.5726 14.508 41.7097 14.0006 41.6896 13.4871C41.6685 13.1167 41.5857 12.7524 41.4446 12.4093C41.2523 11.9516 40.9994 11.522 40.6927 11.1318C40.068 10.3145 39.3338 9.58716 38.5108 8.97048C37.5607 8.26941 36.5367 7.67467 35.4572 7.19691C34.1804 6.62846 32.8603 6.16315 31.5093 5.80543C30.1974 5.44733 28.8659 5.16552 27.5215 4.96142C27.0715 4.89299 26.6214 4.82455 26.1657 4.76753C25.7099 4.7105 25.2143 4.60215 24.7301 4.56223C24.2458 4.52231 23.7445 4.48239 23.2546 4.45387C22.7646 4.42536 22.1608 4.38544 21.6082 4.37404C20.3891 4.33982 19.1699 4.33982 17.9508 4.41395C17.4381 4.44817 16.9197 4.47669 16.407 4.52231C15.7233 4.58504 15.0397 4.67058 14.3618 4.77893C13.5549 4.90584 12.7561 5.07911 11.9691 5.29789C10.8311 5.61408 9.74086 6.0821 8.72759 6.68937C7.9275 7.16312 7.20822 7.76186 6.59696 8.46293C6.24023 8.86916 5.94642 9.32667 5.72534 9.82019C5.52807 10.2497 5.41033 10.7115 5.37783 11.1832C5.32613 11.9511 5.492 12.7181 5.85637 13.3958C6.15941 13.9601 6.54327 14.4769 6.99574 14.9299C7.5789 15.517 8.22242 16.0408 8.91558 16.4925L9.03522 16.5552L9.2403 16.4925L10.3512 16.1731C10.4025 16.1731 10.4537 16.1275 10.505 16.1731C10.5563 16.2187 10.4708 16.2529 10.4309 16.2757L9.54793 16.732C9.50921 16.7548 9.47294 16.7815 9.43969 16.8118L9.53084 16.8802C10.0151 17.1483 10.4993 17.4163 10.9892 17.6786C11.0658 17.7178 11.1488 17.7429 11.2342 17.7528C11.6501 17.8269 12.0659 17.8953 12.4875 17.9581C13.0572 18.0436 13.6269 18.1292 14.1966 18.2033C14.7663 18.2774 15.4784 18.3801 16.1221 18.4599C16.7659 18.5398 17.3469 18.6025 17.9622 18.6652C18.7313 18.7393 19.4946 18.8192 20.2409 18.8705C20.9872 18.9218 21.8588 18.9846 22.6735 19.0074C24.1936 19.0811 25.7172 19.0392 27.231 18.8819C27.446 18.8644 27.6594 18.8301 27.869 18.7793C27.484 18.021 27.058 17.2842 26.5929 16.5723L26.5758 16.5381ZM25.4764 14.8272H25.3909C24.7538 14.9429 24.1111 15.0248 23.4654 15.0725C22.5481 15.1449 21.6258 15.12 20.7138 14.9983C20.1308 14.9154 19.5581 14.7721 19.0047 14.5706C18.3012 14.3205 17.6544 13.9328 17.102 13.4301C16.8103 13.1755 16.562 12.875 16.3671 12.5404C16.2399 12.3276 16.1512 12.094 16.105 11.8504C16.0815 11.7441 16.0827 11.6339 16.1083 11.5281C16.134 11.4223 16.1835 11.3238 16.2531 11.2402C16.3648 11.1019 16.4887 10.974 16.6234 10.8581C16.9452 10.6071 17.2928 10.3911 17.6603 10.2137C18.4059 9.79282 19.1923 9.44889 20.0074 9.18719C21.2754 8.77338 22.5942 8.53545 23.9268 8.48004C25.4639 8.42006 27.001 8.59701 28.4843 9.0047C29.3575 9.23484 30.2079 9.54407 31.0251 9.92855C31.4106 10.1057 31.7739 10.3278 32.1075 10.5901C32.3109 10.7442 32.4912 10.9266 32.643 11.1318C32.7624 11.2938 32.8529 11.4751 32.9108 11.6679C32.9763 11.8688 32.9804 12.0846 32.9225 12.2878C32.8646 12.4911 32.7475 12.6723 32.586 12.8085C32.5002 12.8862 32.4066 12.955 32.3069 13.0138C32.1618 13.1026 32.0115 13.1825 31.8568 13.2533C31.5304 13.3898 31.1931 13.4985 30.8485 13.5783C30.7679 13.5932 30.6894 13.6181 30.6149 13.6525L30.7687 13.7209L31.3042 13.9262L32.9278 14.5478C33.0045 14.5795 33.0905 14.5795 33.1671 14.5478C33.752 14.3459 34.306 14.0637 34.8135 13.7095C35.0567 13.543 35.2721 13.3389 35.4515 13.105C35.6076 12.9112 35.7058 12.6774 35.7351 12.4302C35.7643 12.1831 35.7233 11.9327 35.6168 11.7078C35.5225 11.5066 35.408 11.3155 35.2749 11.1375C35.0333 10.8358 34.7623 10.5588 34.466 10.3106C33.7607 9.70828 32.9622 9.22483 32.1018 8.87923C30.8545 8.3741 29.5608 7.9921 28.2393 7.73868C27.5272 7.60181 26.8094 7.48205 26.0916 7.40221C25.5219 7.34519 24.9522 7.27675 24.3826 7.23683C23.8129 7.19691 23.1634 7.17981 22.5539 7.15699C21.8361 7.15699 21.1183 7.15699 20.4004 7.19691C19.563 7.24254 18.7256 7.32808 17.8938 7.45354C17.0233 7.58337 16.1629 7.77393 15.3189 8.02382C14.5944 8.2411 13.8939 8.53153 13.2281 8.89064C12.7631 9.16642 12.3377 9.50406 11.9634 9.89433C11.3625 10.4498 10.9805 11.2024 10.8867 12.0158C10.8334 12.412 10.8731 12.8151 11.0027 13.1933C11.1322 13.5714 11.348 13.9142 11.633 14.1942C12.0007 14.559 12.431 14.8546 12.9034 15.0668C13.4134 15.3082 13.9457 15.4992 14.4928 15.637C15.7361 15.9493 17.0068 16.1403 18.2869 16.2073C19.0788 16.2586 19.8763 16.2757 20.6739 16.2643C21.4715 16.2529 22.2007 16.2358 22.9526 16.1959C23.5907 16.1674 24.2287 16.1161 24.8668 16.0647C25.2086 16.0647 25.5447 16.002 25.8808 15.9678L26.1714 15.9222C25.9783 15.5468 25.7514 15.1898 25.4934 14.8558L25.4764 14.8272ZM14.6295 31.5649H14.584L14.5441 31.4908C14.5099 31.3938 14.4814 31.2969 14.4472 31.2056C14.07 30.1717 13.6208 29.1655 13.1028 28.1946C12.991 27.9837 12.8635 27.7816 12.7211 27.5901C12.4411 27.2108 12.2042 26.8015 12.0147 26.3697C11.6394 25.4709 11.3347 24.5443 11.1032 23.5981C10.9721 23.0906 10.8525 22.583 10.7386 22.0698C10.7323 22.0163 10.7106 21.9657 10.6762 21.9242C10.6419 21.8827 10.5963 21.8521 10.5449 21.836C10.4196 21.796 10.2999 21.7447 10.1746 21.7105C9.7998 21.6113 9.4193 21.5351 9.03522 21.4824C9.0051 21.4767 8.97418 21.4767 8.94407 21.4824C8.93216 21.5041 8.92262 21.5271 8.91558 21.5508C8.87943 21.8566 8.88903 22.166 8.94407 22.469C9.04687 23.016 9.20531 23.551 9.41691 24.0658C9.70175 24.7957 10.0265 25.5029 10.3683 26.2043C11.4659 28.4398 12.5673 30.6772 13.6725 32.9165C13.6725 32.9621 13.7237 33.0077 13.7579 33.0647H14.1966C14.4586 33.0647 14.7207 33.0134 14.977 32.9792C15.4303 32.9234 15.8781 32.83 16.3158 32.6998C16.3615 32.6833 16.4032 32.6576 16.4385 32.6242C16.4738 32.5908 16.5018 32.5506 16.5209 32.5059C16.8915 31.7664 17.1525 30.9768 17.2957 30.162C17.3792 29.7296 17.3888 29.2861 17.3241 28.8504C17.2843 28.5995 17.2501 28.3428 17.2102 28.0919C17.0992 27.4829 17.0992 26.8589 17.2102 26.2499C17.2724 25.8832 17.3977 25.5301 17.5805 25.2063C17.6665 25.05 17.7805 24.9109 17.9166 24.7957C18.013 24.7168 18.134 24.6744 18.2584 24.6759C18.2584 24.6759 18.3211 24.6759 18.3268 24.733C18.3152 24.7496 18.3018 24.7649 18.2869 24.7786C18.2315 24.8067 18.1827 24.846 18.1434 24.8942C18.1042 24.9423 18.0754 24.9981 18.059 25.058C18.01 25.172 17.9719 25.2904 17.9451 25.4116C17.9023 25.6703 17.8737 25.9311 17.8596 26.1929C17.8255 27.0426 17.8596 27.9037 17.8596 28.742C17.8596 28.8561 17.8596 28.9701 17.8596 29.0899C17.8354 29.673 17.726 30.2494 17.5349 30.8007C17.339 31.3547 17.081 31.8846 16.7659 32.3804C16.7258 32.4295 16.7002 32.4887 16.6918 32.5515H16.8228C17.511 32.3754 18.2154 32.2703 18.925 32.2378C19.318 32.2378 19.7111 32.2036 20.1042 32.1808C20.1516 32.185 20.1993 32.185 20.2466 32.1808C20.2466 32.0782 20.2466 31.9869 20.2466 31.8957C20.2466 31.8044 20.2466 31.7417 20.2466 31.6619C20.2172 31.0602 20.2593 30.4572 20.372 29.8655C20.4859 29.2243 20.7408 28.6166 21.1183 28.0862C21.2141 27.9552 21.2908 27.8112 21.3461 27.6585C21.4552 27.3691 21.5335 27.069 21.5797 26.7632C21.6367 26.3583 21.6879 25.9534 21.7335 25.5428C21.8019 24.9725 21.8247 24.4022 21.8475 23.7863C21.8475 23.7464 21.8475 23.7008 21.8475 23.6551C21.8209 23.6522 21.7942 23.6522 21.7677 23.6551H20.2637C20.2238 23.6551 20.184 23.6551 20.1669 23.6894V23.7179V23.8319C20.2675 24.3482 20.3001 24.8755 20.2637 25.4002C20.2155 25.9132 20.1065 26.4186 19.939 26.9057C19.8649 27.1281 19.7909 27.3448 19.7282 27.573C19.6082 28.0708 19.5188 28.5755 19.4605 29.0842C19.3864 29.6032 19.3294 30.1278 19.2611 30.6468C19.2611 30.8235 19.2155 31.0003 19.1927 31.1771C19.1927 31.2056 19.1927 31.2399 19.1414 31.2399C19.1414 31.1942 19.0845 31.1486 19.0674 31.103C18.939 30.7644 18.8492 30.4124 18.7996 30.0537C18.7273 29.5246 18.7408 28.9874 18.8395 28.4626C18.9357 28.0083 19.0829 27.5664 19.2782 27.1453C19.3807 26.9114 19.489 26.6833 19.5858 26.4438C19.9261 25.6031 20.0778 24.6979 20.0302 23.792C20.0332 23.7331 20.0332 23.6741 20.0302 23.6152C20.0056 23.6115 19.9806 23.6115 19.9561 23.6152L17.2957 23.5525H17.1931C17.1931 23.6609 17.1418 23.7635 17.1191 23.8719C17.0057 24.4159 16.8377 24.947 16.6177 25.4572C16.4804 25.7758 16.2875 26.0674 16.048 26.3183C15.7815 26.5908 15.6062 26.9396 15.5467 27.3163C15.4509 27.8335 15.4317 28.3619 15.4898 28.8846C15.4898 29.0671 15.5296 29.2553 15.5467 29.4549C15.5467 29.5062 15.5752 29.5632 15.5467 29.6032C15.5182 29.6431 15.4442 29.5347 15.4157 29.4891C15.1237 29.0974 14.9285 28.6421 14.846 28.1603C14.7834 27.8479 14.7834 27.5261 14.846 27.2137C14.9462 26.7313 15.2123 26.2994 15.598 25.9933C15.9065 25.7465 16.1574 25.435 16.3329 25.0808C16.5711 24.6297 16.7785 24.1629 16.9538 23.6837C16.9561 23.6381 16.9561 23.5924 16.9538 23.5468C16.5949 23.5468 16.2588 23.4898 15.9227 23.5069C15.8885 23.5525 15.8544 23.5867 15.8316 23.6209C15.5017 24.0717 15.1192 24.4815 14.6922 24.8413C14.5234 25.0008 14.3313 25.1335 14.1225 25.2348C13.8955 25.3376 13.6403 25.3597 13.399 25.2976C13.2601 25.2657 13.1329 25.1954 13.0322 25.0945C12.9314 24.9936 12.8611 24.8663 12.8293 24.7273C12.798 24.6134 12.798 24.4932 12.8293 24.3794C12.8631 24.3716 12.8981 24.3716 12.9319 24.3794C12.9764 24.4101 13.0183 24.4445 13.0572 24.4821C13.1347 24.5577 13.2321 24.6097 13.3381 24.6319C13.444 24.6541 13.5541 24.6456 13.6554 24.6075C14.088 24.4893 14.4968 24.2963 14.8631 24.0372L15.5068 23.5525C15.5068 23.5525 15.5752 23.5069 15.5467 23.4556H15.4784C15.222 23.4556 14.9599 23.4213 14.6979 23.3928C14.4358 23.3643 14.1282 23.3358 13.8206 23.2959C13.5603 23.263 13.3056 23.1959 13.0629 23.0963C12.9427 23.0429 12.8164 23.0046 12.6869 22.9822L11.9007 22.794C11.5754 22.7166 11.2778 22.5509 11.0405 22.315C11.0095 22.2922 10.9771 22.2713 10.9437 22.2523C10.9778 22.3549 10.9949 22.429 11.0177 22.5032C11.2456 23.1305 11.4678 23.7692 11.707 24.3965C11.9445 25.025 12.2204 25.6383 12.5331 26.2328C12.7006 26.5467 12.9074 26.838 13.1483 27.0996C13.3863 27.3568 13.5946 27.6399 13.7693 27.9436C14.3079 28.9214 14.614 30.0103 14.6637 31.1258C14.6732 31.2731 14.6617 31.4209 14.6295 31.5649ZM29.6237 22.2409C29.1793 21.2828 28.7122 20.3532 28.2165 19.4294H28.0855C27.2118 19.5797 26.3284 19.6673 25.4422 19.6917C24.8155 19.6917 24.1889 19.6917 23.5679 19.6917C22.7533 19.6917 21.9443 19.6575 21.1353 19.6005L19.6826 19.4978C19.2497 19.4693 18.8224 19.4294 18.3895 19.3895L16.8741 19.2241C16.3044 19.1614 15.7347 19.0929 15.165 19.0188L13.3648 18.8192L11.0861 18.4542C10.9426 18.4321 10.804 18.3858 10.6759 18.3173C10.055 18.0037 9.44539 17.6672 8.85861 17.2965L8.68201 17.1939L6.46024 18.2489C6.0868 18.4521 5.69356 18.6164 5.28668 18.7393C5.25224 18.7567 5.21977 18.7777 5.18984 18.8021C5.23541 18.8363 5.2582 18.8648 5.28668 18.8876C5.66268 19.1785 6.02728 19.4579 6.42606 19.7544C6.63382 19.8982 6.84867 20.0315 7.0698 20.1536C7.24393 20.2588 7.43788 20.3267 7.63949 20.3532L8.39147 20.4559C8.90989 20.5357 9.434 20.6042 9.94671 20.6954C10.2966 20.7537 10.6375 20.8572 10.9608 21.0034C11.2196 21.1098 11.4456 21.2829 11.6159 21.5052C11.7365 21.6782 11.9139 21.8033 12.1172 21.8588C12.2767 21.9044 12.4419 21.95 12.6071 21.9842C12.9411 22.0444 13.2676 22.14 13.5813 22.2694C13.6673 22.3035 13.7573 22.3265 13.8491 22.3378C13.9972 22.3378 14.1396 22.3834 14.2877 22.4005C14.7264 22.4348 15.165 22.4804 15.6037 22.5032C16.4468 22.5545 17.3128 22.6001 18.1445 22.6286C19.3237 22.6629 20.5087 22.6686 21.6879 22.6286C22.2576 22.6286 22.8273 22.5716 23.3514 22.5317C23.6135 22.5317 23.8698 22.4576 24.1262 22.4176C24.2602 22.384 24.3861 22.3239 24.4965 22.2409C24.5939 22.1765 24.6946 22.1175 24.7984 22.0641C25.2433 21.8209 25.7576 21.7364 26.2568 21.8246C26.6328 21.8873 27.0145 21.9614 27.3962 22.047C28.0361 22.1907 28.6888 22.2691 29.3445 22.2808C29.4394 22.2911 29.5354 22.2774 29.6237 22.2409ZM25.0662 14.1999C24.9693 14.046 24.8953 13.9205 24.8155 13.8007C24.6316 13.5141 24.4715 13.2127 24.337 12.8997C24.2606 12.718 24.2125 12.5257 24.1946 12.3294C24.1788 12.2237 24.1863 12.1157 24.2164 12.0131C24.2466 11.9106 24.2988 11.8158 24.3693 11.7354C24.4398 11.6551 24.5269 11.5911 24.6247 11.5479C24.7224 11.5047 24.8283 11.4834 24.9351 11.4854C25.0422 11.4836 25.1491 11.4931 25.2542 11.5139C25.4479 11.5652 25.6416 11.6223 25.8239 11.6907C26.2212 11.8571 26.6026 12.0595 26.9632 12.2952C27.0955 12.3743 27.2347 12.4411 27.3791 12.4948L29.2078 13.1506C29.3247 13.2084 29.4495 13.2487 29.5781 13.2704C29.709 13.2659 29.8381 13.2389 29.9598 13.1905C30.3756 13.0708 30.7915 12.9567 31.2017 12.8313C31.4481 12.7717 31.6843 12.6756 31.9024 12.5461C32.0055 12.4789 32.0994 12.3983 32.1816 12.3066C32.2304 12.2561 32.2654 12.194 32.2834 12.1261C32.3013 12.0582 32.3016 11.9868 32.2841 11.9188C32.2529 11.7759 32.1906 11.6415 32.1018 11.5253C31.952 11.3282 31.7711 11.1567 31.5663 11.0178C31.2316 10.7884 30.8724 10.5971 30.4953 10.4475C28.8907 9.73408 27.1718 9.31308 25.4194 9.20429C23.2472 9.07129 21.074 9.44818 19.0731 10.3049C18.5405 10.532 18.0294 10.8068 17.5463 11.1261C17.348 11.2591 17.1577 11.4039 16.9766 11.5595C16.7829 11.7306 16.7829 11.782 16.8855 12.0272C16.9922 12.2753 17.1384 12.5045 17.3184 12.7058C17.5999 13.0154 17.9264 13.2807 18.2869 13.4928C18.8295 13.8184 19.4196 14.057 20.0358 14.1999C20.7514 14.3668 21.4831 14.4548 22.2177 14.4623C23.0802 14.4636 23.9414 14.395 24.7927 14.257L25.0662 14.1999ZM37.3657 26.1758C37.3787 26.1446 37.3882 26.1121 37.3942 26.0788C37.5689 23.3187 37.7436 20.5585 37.9183 17.7984C37.9211 17.768 37.9211 17.7375 37.9183 17.7071V17.6786L37.7189 17.5874C37.2062 17.3593 36.6935 17.1255 36.175 16.9088L33.2697 15.7169C33.2393 15.6957 33.2049 15.6812 33.1685 15.6743C33.1322 15.6675 33.0948 15.6683 33.0589 15.677V15.8594L33.1101 17.5703C33.1443 18.5512 33.1728 19.532 33.2013 20.5129C33.2412 21.7561 33.2753 22.9993 33.3152 24.2425C33.3152 24.311 33.3152 24.3794 33.3152 24.4535L37.3657 26.1758ZM41.4276 27.9436C41.4276 27.8068 41.4276 27.7155 41.4276 27.6243C41.4276 27.2308 41.4674 26.8373 41.4959 26.4438C41.5472 25.5998 41.6042 24.733 41.6554 23.9004C41.6953 23.2788 41.7295 22.6515 41.7694 22.0299C41.7694 21.7048 41.8149 21.3797 41.832 21.0604C41.8491 20.741 41.8719 20.3932 41.8947 20.0624C41.9002 20.0163 41.8948 19.9697 41.8789 19.9261C41.8631 19.8825 41.8373 19.8433 41.8035 19.8115C41.7216 19.7295 41.634 19.6532 41.5415 19.5834C41.3193 19.4294 41.0971 19.2811 40.8636 19.1442C40.1742 18.7336 39.4507 18.3858 38.7272 18.0436C38.6874 18.0436 38.6475 17.9923 38.5791 18.0436C38.4082 20.7581 38.2354 23.4803 38.0607 26.21C38.0607 26.3012 38.0607 26.3925 38.0607 26.5008L41.4276 27.9436ZM42.3561 28.3714L42.4473 28.4227C42.6504 28.5155 42.865 28.5807 43.0853 28.6166C43.3342 28.6699 43.5936 28.6435 43.8267 28.5412C44.0598 28.4388 44.2548 28.2657 44.3842 28.0463C44.5039 27.8638 44.5039 27.8638 44.464 27.6357C44.3159 26.7746 44.1677 25.9249 44.0253 25.058C43.9374 24.4587 43.9822 23.8474 44.1563 23.2674C44.1563 23.2217 44.1563 23.1761 44.2532 23.1647C44.2824 23.2028 44.309 23.2428 44.333 23.2845C44.6048 23.8856 44.7354 24.5411 44.7146 25.2006C44.7146 25.9249 44.7146 26.6491 44.7146 27.3791C44.7146 27.419 44.7146 27.4703 44.7773 27.5045L44.8685 27.3905C45.1268 27.1237 45.4295 26.9037 45.7629 26.7404C45.8618 26.7028 45.9527 26.6467 46.0306 26.575C46.0306 26.4153 45.9793 26.2442 45.9566 26.0788C45.8483 25.4458 45.7344 24.8128 45.6375 24.1798C45.5692 23.7293 45.5179 23.2788 45.4666 22.8282C45.4324 22.5374 45.3983 22.258 45.3869 21.95C45.3772 21.3734 45.4442 20.7981 45.5863 20.2392C45.705 19.76 45.8612 19.2909 46.0534 18.8363C46.0922 18.7731 46.1101 18.6993 46.1047 18.6253L45.9736 18.6709C45.588 18.8513 45.1767 18.9706 44.7545 19.0245C44.4635 19.0612 44.1889 19.1799 43.9627 19.3667L43.6265 19.6119C43.4465 19.7483 43.2308 19.8295 43.0056 19.8457H42.8973C42.8347 20.1194 42.3391 28.206 42.3561 28.3885V28.3714ZM5.7994 29.3864C5.7994 29.3066 5.7994 29.2325 5.7994 29.1583C5.75337 28.7795 5.75337 28.3966 5.7994 28.0178C5.87273 27.3807 6.04575 26.7591 6.31212 26.1758C6.43745 25.902 6.55708 25.6055 6.66532 25.3432C6.8963 24.7212 7.07169 24.08 7.18944 23.427C7.30646 22.752 7.37877 22.07 7.40592 21.3854C7.40846 21.3456 7.40846 21.3056 7.40592 21.2657C6.94686 21.1238 6.51393 20.9081 6.12412 20.627C5.87916 20.4673 5.64559 20.2905 5.40632 20.1194C5.35498 20.0859 5.30172 20.0554 5.24681 20.0282L5.28668 20.1879C5.51456 20.9292 5.68546 21.682 5.85637 22.4348C5.98108 23.0014 5.95753 23.5907 5.78801 24.1456C5.73546 24.3172 5.65873 24.4804 5.56013 24.6303C5.53032 24.6564 5.49786 24.6794 5.46329 24.6988C5.44528 24.6502 5.43007 24.6007 5.41771 24.5505C5.41771 24.3794 5.37783 24.1969 5.34935 24.0258C5.24582 23.4613 5.19055 22.8889 5.18414 22.315C5.18414 22.1154 5.18414 21.9101 5.18414 21.7105C5.18414 21.414 5.13287 21.1117 5.09869 20.8152C5.06451 20.5186 5.03602 20.2164 5.00184 19.9141C4.99751 19.8643 4.98317 19.8159 4.95967 19.7718C4.93618 19.7277 4.90401 19.6888 4.86512 19.6575L3.79411 18.8192C3.79411 18.8192 3.73714 18.7622 3.68587 18.785C3.66017 18.8647 3.66017 18.9505 3.68587 19.0302C3.76562 19.4807 3.84538 19.9255 3.90804 20.376C4.05872 21.3703 4.11594 22.3765 4.07895 23.3814C4.0677 23.861 4.01047 24.3385 3.90804 24.8071C3.78841 25.3033 3.66878 25.7937 3.55484 26.2898C3.48078 26.6035 3.42381 26.9114 3.35545 27.2194C3.34172 27.268 3.33973 27.3193 3.34963 27.3688C3.35954 27.4184 3.38106 27.4649 3.41242 27.5045L3.47508 27.5958C3.68587 27.6471 3.88526 27.6927 4.08465 27.7554C4.65674 27.9167 5.14328 28.2953 5.4405 28.8105C5.53165 28.9701 5.61141 29.1412 5.70256 29.3009C5.72534 29.3237 5.73104 29.375 5.7994 29.3864ZM32.6088 24.0886V23.7521C32.5689 22.5089 32.5234 21.2657 32.4892 20.0225L32.3695 16.1104C32.3695 15.8937 32.3695 15.677 32.3695 15.4602C32.3695 15.426 32.3695 15.3861 32.3695 15.3633L32.3183 15.3234L29.9655 14.4394C29.924 14.4329 29.8817 14.4329 29.8401 14.4394V14.679C29.8401 16.5552 29.8401 18.4371 29.8401 20.3133C29.8417 20.4582 29.8768 20.6007 29.9427 20.7296C30.2731 21.4197 30.5921 22.1154 30.9168 22.8054C31.0098 22.968 31.0515 23.1548 31.0365 23.3415C31.0365 23.3415 31.0365 23.3985 31.0365 23.4441C31.515 23.6609 32.005 23.8719 32.4949 24.0772C32.532 24.0868 32.5705 24.0907 32.6088 24.0886ZM26.3423 32.9393L26.6271 32.9963C27.0047 33.0546 27.3889 33.0546 27.7665 32.9963C28.018 32.9673 28.2576 32.8729 28.4615 32.7226V32.6427C28.433 32.3405 28.3931 32.0725 28.3817 31.7417C28.3539 30.8853 28.4208 30.0285 28.5811 29.1868C28.7041 28.5415 28.7765 27.8875 28.7976 27.2308C28.8073 25.9442 28.7331 24.6583 28.5754 23.3814C28.567 23.3196 28.5537 23.2586 28.5356 23.1989C28.3191 23.1476 28.1026 23.1419 27.8918 23.102L27.2367 22.9765C27.0267 22.9221 26.8136 22.8802 26.5986 22.8511V23.0507C26.5986 23.3358 26.6271 23.6209 26.6442 23.9061C26.6442 24.368 26.6784 24.8299 26.7069 25.2918C26.7069 25.8621 26.7524 26.4324 26.7069 27.0027C26.6937 27.5755 26.5719 28.1406 26.348 28.6679C26.2824 28.8172 26.2475 28.9782 26.2454 29.1412C26.2454 29.3693 26.2454 29.6032 26.2454 29.837L26.3138 32.7568C26.3252 32.8024 26.3252 32.8594 26.3309 32.9393H26.3423ZM24.1376 32.369C24.1629 32.2795 24.1629 32.1847 24.1376 32.0953C24.1376 31.5877 24.018 31.0973 23.961 30.5954C23.9268 30.2362 23.8698 29.8769 23.8527 29.5176C23.8527 28.7991 23.8072 28.0805 23.7901 27.362C23.7815 26.7948 23.8024 26.2275 23.8527 25.6625C23.903 24.9222 24.0427 24.1908 24.2686 23.4841C24.2867 23.4298 24.302 23.3746 24.3142 23.3187H24.1661C23.8332 23.3848 23.4964 23.4286 23.1577 23.4498L22.1152 23.524C22.0721 23.53 22.03 23.5415 21.9899 23.5582C21.9899 23.6152 21.9899 23.6609 21.9899 23.7065C22.0241 24.3167 22.0696 24.9269 22.0867 25.5371C22.1071 26.1521 22.0631 26.7675 21.9557 27.3734C21.9088 27.699 21.8047 28.0137 21.6481 28.3029C21.4693 28.6187 21.3315 28.956 21.2379 29.3066C20.9872 30.1905 20.7423 31.0745 20.4916 31.9584C20.4916 32.004 20.4916 32.0496 20.4631 32.0953H20.5372H21.6765C21.7037 32.0873 21.7303 32.0778 21.7563 32.0668V31.8386C21.7563 31.5763 21.705 31.3197 21.6936 31.0574C21.6596 30.6322 21.6596 30.2051 21.6936 29.7799C21.7336 29.3926 21.9045 29.0305 22.1779 28.7534C22.2622 28.6636 22.3653 28.5935 22.4798 28.5481C22.5118 28.5421 22.5446 28.5421 22.5766 28.5481C22.5795 28.5956 22.5795 28.6432 22.5766 28.6907C22.5766 28.9131 22.5197 29.1355 22.4855 29.3522C22.4591 29.5595 22.421 29.7651 22.3716 29.9681C22.2178 30.5297 22.1036 31.1014 22.0297 31.679C22.0297 31.8158 21.9956 31.9527 21.9785 32.1181C22.2291 32.1181 22.4684 32.1181 22.702 32.1523C22.9356 32.1865 23.1691 32.1523 23.397 32.2036C23.6249 32.2549 23.8926 32.312 24.1262 32.3576L24.1376 32.369ZM26.0289 32.8937C26.0289 32.8594 26.0289 32.8537 26.0289 32.848V32.7568C25.7928 31.996 25.6381 31.2122 25.5675 30.4186C25.5248 30.0034 25.5248 29.5849 25.5675 29.1697C25.5996 28.8937 25.6847 28.6265 25.8182 28.3828C26.0051 28.0715 26.1362 27.7299 26.2055 27.3734C26.271 26.9965 26.3072 26.6152 26.3138 26.2328L26.3822 24.7957L26.4676 22.948C26.4676 22.9024 26.4676 22.8568 26.4676 22.8282H26.4334L26.2739 22.7997C26.0815 22.7486 25.8805 22.739 25.684 22.7714C25.4876 22.8039 25.3004 22.8777 25.1345 22.9879C25.065 23.0376 24.9927 23.0833 24.9181 23.1248C24.8463 23.1707 24.7699 23.2089 24.6902 23.2388C24.4908 23.3301 24.4851 23.3244 24.4395 23.5468V23.6609C24.3238 24.3065 24.2647 24.961 24.2629 25.6169C24.2696 26.5289 24.3362 27.4396 24.4623 28.3428C24.5364 28.9473 24.6275 29.5518 24.656 30.162C24.6878 30.7552 24.6534 31.3501 24.5535 31.9356C24.525 32.1067 24.4737 32.2778 24.4281 32.4602C24.9522 32.6142 25.4707 32.7625 26.0175 32.8823L26.0289 32.8937ZM13.5756 33.0761C13.5414 33.002 13.5129 32.9564 13.4902 32.9108L10.2543 27.3734C9.86696 26.7004 9.45678 26.0332 9.11497 25.3318C9.11497 25.3318 9.08649 25.3033 9.058 25.2804C9.02952 25.2576 9.058 25.3717 9.058 25.4059C9.01813 25.6967 8.98964 25.9762 8.93837 26.2784C8.84361 26.7633 8.72382 27.243 8.57947 27.7155C8.45878 28.139 8.37492 28.5721 8.32881 29.0101C8.27368 29.5539 8.24706 30.1002 8.24905 30.6468C8.24905 30.9547 8.24905 31.2627 8.28323 31.582L8.66492 31.7588L9.01243 31.9413C9.13776 32.004 9.2517 32.0782 9.37133 32.1466C9.4904 32.2277 9.61849 32.2947 9.75302 32.3462C9.75589 32.3063 9.75589 32.2663 9.75302 32.2264C9.75302 32.0725 9.70745 31.9185 9.69036 31.7702C9.65337 31.431 9.65337 31.0887 9.69036 30.7494C9.6996 30.5945 9.7403 30.4432 9.80999 30.3046C9.84876 30.216 9.91534 30.1424 9.99964 30.0951C10.0839 30.0477 10.1814 30.0292 10.2771 30.0423C10.4323 30.05 10.5797 30.1126 10.693 30.2191C10.8552 30.3644 11.0093 30.5186 11.1544 30.681C11.6653 31.2755 12.0077 31.9963 12.1457 32.7682C12.1525 32.8486 12.1717 32.9275 12.2027 33.002C12.6565 33.0744 13.1166 33.0993 13.5756 33.0761ZM6.64254 31.0288C6.76217 31.0745 6.86471 31.1258 6.97295 31.16L8.11233 31.4908C8.11481 31.4566 8.11481 31.4223 8.11233 31.3881C8.06105 30.949 7.99269 30.5156 7.95281 30.0765C7.87872 29.3529 7.89594 28.6229 8.00409 27.9037L8.10663 27.2422C8.1636 26.843 8.20917 26.4495 8.27184 26.0503C8.38008 25.4002 8.48832 24.7558 8.60226 24.1114C8.6279 23.9815 8.6279 23.8478 8.60226 23.7179C8.49784 23.2909 8.45563 22.851 8.47692 22.4119C8.48555 22.1319 8.53744 21.8549 8.63074 21.5907C8.63074 21.5508 8.63074 21.5109 8.63074 21.4596L7.611 21.317C7.57708 21.311 7.54238 21.311 7.50846 21.317C7.50601 21.3436 7.50601 21.3703 7.50846 21.3968C7.50846 21.7789 7.50846 22.1553 7.50846 22.5374C7.49799 23.1109 7.44467 23.6827 7.34895 24.2482C7.23694 24.9348 7.06538 25.6103 6.83623 26.267C6.74576 26.5128 6.67154 26.7643 6.61405 27.0198C6.49177 27.6185 6.42879 28.2279 6.42606 28.839C6.41931 29.2712 6.43833 29.7035 6.48302 30.1335C6.50998 30.436 6.56335 30.7356 6.64254 31.0288ZM29.2648 19.2982V19.1328L29.1964 16.0533C29.1964 15.4831 29.1964 14.9413 29.1964 14.3824C29.2076 14.2948 29.1938 14.2059 29.1565 14.1258L28.9913 14.0631L27.1854 13.4072C26.9517 13.3342 26.7264 13.2367 26.5132 13.1164C26.1355 12.8849 25.7345 12.6937 25.3168 12.5461C25.2827 12.5461 25.2428 12.5062 25.2029 12.5461C25.2166 12.65 25.2536 12.7494 25.3111 12.837C25.5115 13.2111 25.7341 13.573 25.9777 13.9205C26.5986 14.8158 27.1854 15.7283 27.7323 16.6692C28.2051 17.4961 28.6609 18.3287 29.1223 19.1557C29.1565 19.1785 29.1679 19.2526 29.2648 19.2982ZM28.6951 23.2046C28.7577 23.5297 28.8261 23.8376 28.8888 24.1513C29.0892 25.1195 29.2187 26.1011 29.2762 27.0882C29.3559 28.368 29.2813 29.6528 29.054 30.9148C28.9571 31.4223 28.866 31.9299 28.7748 32.4431C28.7689 32.4905 28.7689 32.5384 28.7748 32.5857C28.8888 32.5401 28.9856 32.4945 29.0882 32.4602C29.1907 32.426 29.3103 32.3918 29.4186 32.369C29.5256 32.3473 29.6342 32.3339 29.7433 32.3291C29.8553 32.3233 29.9674 32.3233 30.0794 32.3291C30.0794 32.1124 30.125 24.0715 30.0794 23.3358C30.0817 23.294 30.0817 23.2521 30.0794 23.2103L28.6951 23.2046ZM3.6289 19.2127C3.6289 19.2811 3.6289 19.3096 3.58902 19.3324C3.51496 19.6518 3.4466 19.9654 3.36684 20.2791C3.19593 20.9609 2.94345 21.6196 2.61486 22.2409C2.5314 22.4055 2.46277 22.5773 2.40977 22.7541C2.17015 23.5561 2.10985 24.4011 2.23317 25.2291C2.28487 25.6768 2.45608 26.1023 2.7288 26.4609C2.78007 26.5179 2.81994 26.5864 2.86552 26.6434L2.95097 26.7289C2.97144 26.6808 2.98857 26.6312 3.00224 26.5807C3.13327 26.1245 3.25291 25.6568 3.39533 25.2006C3.62044 24.4595 3.75249 23.6932 3.78841 22.9195C3.85221 21.7411 3.80644 20.5594 3.65169 19.3895C3.63963 19.3316 3.62442 19.2745 3.60611 19.2184L3.6289 19.2127ZM47.1586 18.0721C47.1269 18.0822 47.0964 18.0956 47.0674 18.112C46.8908 18.209 46.7256 18.323 46.549 18.4143C46.3724 18.5055 46.3724 18.4998 46.3098 18.6994C46.1126 19.2948 45.9733 19.9079 45.8939 20.53C45.7987 21.2595 45.8412 22.0004 46.0192 22.7142C46.1995 23.3445 46.3234 23.9895 46.3895 24.6417C46.4351 25.1483 46.4351 25.6579 46.3895 26.1644C46.3863 26.2157 46.3863 26.2671 46.3895 26.3183C46.4702 26.2794 46.5361 26.2154 46.5775 26.1359C46.7325 25.9035 46.8372 25.6412 46.8851 25.366C46.9755 24.9001 47.0175 24.4262 47.0105 23.9517C47.0105 23.2331 47.0105 22.5146 47.0105 21.796C47.0105 20.5928 47.0617 19.3895 47.1415 18.1862C47.1415 18.1349 47.1358 18.1063 47.1358 18.0607L47.1586 18.0721ZM9.91823 32.4203C10.5228 32.7121 11.1752 32.8918 11.8438 32.9507C11.8096 32.9051 11.7811 32.8594 11.7469 32.8195C11.5037 32.5227 11.2828 32.2082 11.0861 31.8786C10.9835 31.7018 10.8924 31.525 10.7898 31.3539C10.6873 31.1828 10.5677 30.9661 10.448 30.7836C10.391 30.6848 10.3057 30.6053 10.2031 30.5555C10.1213 30.6437 10.0694 30.7554 10.055 30.8749C9.9782 31.2236 9.93434 31.5787 9.92393 31.9356C9.90848 32.0967 9.90657 32.2589 9.91823 32.4203ZM1.9882 17.0228C1.8173 16.8061 1.6407 16.6008 1.48118 16.3841C1.32167 16.1674 1.16786 15.9393 1.00834 15.7112C0.951375 15.7625 0.968466 15.8195 0.968466 15.8651C0.917194 17.5075 0.917194 18.842 0.968466 19.0473C1.3655 18.4009 1.70665 17.7217 1.9882 17.0171V17.0228Z" fill="inherit"/>
        <path d="M193.823 11.6907V28.1319H63.8379V32.7055H197.999V11.6907H193.823Z" fill="inherit"/>
        <path d="M191.671 3.95203H57.9941V26.1073H191.671V3.95203Z" fill="inherit"/>
        <path d="M67.2688 14.8272H70.7837V16.3385H67.2688V18.1633H71.0743V19.6689H65.668V11.531H71.0743V13.0422H67.2688V14.8272Z" fill="black"/>
        <path d="M79.1868 19.6575H78.2354L74.3957 14.525V19.6575H72.7949V11.531H73.7349L77.586 16.6635V11.531H79.1868V19.6575Z" fill="black"/>
        <path d="M86.6659 11.531V16.6635C86.6971 17.0787 86.6419 17.4959 86.5036 17.8885C86.3653 18.2812 86.147 18.6408 85.8626 18.9446C85.2901 19.4342 84.5619 19.7032 83.8089 19.7032C83.0559 19.7032 82.3277 19.4342 81.7552 18.9446C81.4726 18.6398 81.256 18.2798 81.1187 17.8873C80.9815 17.4948 80.9267 17.0782 80.9576 16.6635V16.213H82.5584V16.8973C82.5486 17.0741 82.5754 17.2509 82.6372 17.4168C82.699 17.5826 82.7943 17.7339 82.9173 17.8611C83.0361 17.9753 83.1763 18.0648 83.3298 18.1246C83.4833 18.1843 83.6471 18.2129 83.8117 18.209C84.144 18.2151 84.4652 18.0902 84.7062 17.8611C84.8291 17.7339 84.9245 17.5826 84.9863 17.4168C85.0481 17.2509 85.0749 17.0741 85.0651 16.8973V13.0194H82.6838V11.531H86.6659Z" fill="black"/>
        <path d="M89.2193 12.6602C89.7994 12.0841 90.5368 11.6926 91.3387 11.5351C92.1406 11.3777 92.9711 11.4612 93.7257 11.7751C94.4803 12.0891 95.1252 12.6195 95.5793 13.2996C96.0334 13.9797 96.2764 14.7791 96.2777 15.5971C96.2755 16.2772 96.1061 16.9463 95.7843 17.5452C95.4625 18.1442 94.9982 18.6546 94.4325 19.0312C93.8669 19.4079 93.2172 19.6393 92.541 19.705C91.8648 19.7706 91.1828 19.6685 90.5554 19.4076C89.928 19.1468 89.3744 18.7352 88.9436 18.2093C88.5128 17.6834 88.2181 17.0594 88.0855 16.3924C87.9528 15.7254 87.9864 15.036 88.1831 14.385C88.3799 13.7341 88.7338 13.1417 89.2136 12.6602H89.2193ZM93.9534 13.6867C93.4729 13.2078 92.8226 12.939 92.1446 12.939C91.4666 12.939 90.8163 13.2078 90.3359 13.6867C90.0942 13.9373 89.9056 14.2342 89.7813 14.5595C89.657 14.8848 89.5995 15.2319 89.6124 15.58C89.5994 15.9289 89.6568 16.2769 89.7811 16.6032C89.9054 16.9295 90.0941 17.2273 90.3359 17.479C90.8208 17.9514 91.4708 18.2157 92.1475 18.2157C92.8241 18.2157 93.4741 17.9514 93.9591 17.479C94.1998 17.2266 94.3878 16.9286 94.512 16.6025C94.6362 16.2764 94.6942 15.9288 94.6826 15.58C94.6943 15.2315 94.6358 14.8843 94.5105 14.559C94.3852 14.2337 94.1957 13.937 93.9534 13.6867Z" fill="black"/>
        <path d="M101.405 19.6575H99.8043V16.9429L96.916 11.531H98.739L100.619 14.9527L102.482 11.531H104.305L101.405 16.9429V19.6575Z" fill="black"/>
        <path d="M113.008 13.0422V19.6575H111.407V13.0422H109.18V11.531H115.235V13.0422H113.008Z" fill="black"/>
        <path d="M123.303 19.6575H121.703V16.327H118.558V19.6575H116.957V11.531H118.558V14.8272H121.703V11.531H123.303V19.6575Z" fill="black"/>
        <path d="M127.353 14.8272H130.868V16.3385H127.353V18.1633H131.152V19.6689H125.746V11.531H131.152V13.0422H127.353V14.8272Z" fill="black"/>
        <path d="M145.309 19.6575H144.358L142.387 14.7702L140.404 19.6575H139.464L136.154 11.531H137.932L139.891 16.7091L141.885 11.531H142.825L144.819 16.7091L146.785 11.531H148.556L145.309 19.6575Z" fill="black"/>
        <path d="M150.528 12.6602C151.108 12.0802 151.846 11.6853 152.65 11.5256C153.454 11.3658 154.287 11.4484 155.044 11.7629C155.801 12.0773 156.447 12.6095 156.902 13.292C157.357 13.9745 157.599 14.7767 157.598 15.5971C157.595 16.2766 157.425 16.9449 157.103 17.543C156.781 18.1411 156.316 18.6507 155.751 19.0268C155.186 19.4028 154.536 19.6338 153.861 19.6993C153.185 19.7648 152.504 19.6628 151.877 19.4023C151.25 19.1419 150.697 18.731 150.266 18.2058C149.835 17.6807 149.54 17.0575 149.407 16.3912C149.273 15.7249 149.306 15.0361 149.502 14.3854C149.697 13.7347 150.05 13.1422 150.528 12.6602ZM155.262 13.6867C154.783 13.2082 154.133 12.9395 153.456 12.9395C152.779 12.9395 152.13 13.2082 151.65 13.6867C151.409 13.9373 151.22 14.2342 151.096 14.5595C150.972 14.8848 150.914 15.2319 150.927 15.58C150.914 15.9289 150.971 16.2769 151.096 16.6032C151.22 16.9295 151.409 17.2273 151.65 17.479C152.134 17.951 152.783 18.2152 153.459 18.2152C154.135 18.2152 154.784 17.951 155.268 17.479C155.51 17.2276 155.7 16.9299 155.825 16.6037C155.951 16.2774 156.009 15.9293 155.997 15.58C156.009 15.231 155.951 14.8831 155.824 14.5576C155.698 14.2321 155.507 13.9358 155.262 13.6867Z" fill="black"/>
        <path d="M160.151 12.6601C160.731 12.0821 161.469 11.689 162.272 11.5304C163.075 11.3717 163.906 11.4548 164.662 11.769C165.418 12.0832 166.064 12.6145 166.518 13.2958C166.972 13.9771 167.215 14.7779 167.215 15.5971C167.213 16.2772 167.044 16.9463 166.722 17.5452C166.4 18.1442 165.936 18.6545 165.37 19.0312C164.804 19.4079 164.155 19.6393 163.479 19.7049C162.802 19.7706 162.12 19.6685 161.493 19.4076C160.865 19.1468 160.312 18.7352 159.881 18.2093C159.45 17.6834 159.156 17.0594 159.023 16.3924C158.89 15.7254 158.924 15.0359 159.121 14.385C159.317 13.7341 159.671 13.1417 160.151 12.6601ZM164.879 13.7038C164.4 13.2253 163.751 12.9566 163.074 12.9566C162.397 12.9566 161.747 13.2253 161.268 13.7038C161.026 13.9544 160.837 14.2513 160.713 14.5766C160.589 14.9019 160.531 15.249 160.544 15.5971C160.531 15.946 160.589 16.294 160.713 16.6203C160.837 16.9465 161.026 17.2444 161.268 17.4961C161.752 17.9681 162.401 18.2323 163.076 18.2323C163.752 18.2323 164.401 17.9681 164.885 17.4961C165.128 17.2447 165.317 16.947 165.443 16.6208C165.568 16.2945 165.626 15.9464 165.614 15.5971C165.629 15.2452 165.571 14.8941 165.445 14.5655C165.319 14.2369 165.126 13.9378 164.879 13.6867V13.7038Z" fill="black"/>
        <path d="M169.106 11.531H171.954C172.494 11.5176 173.03 11.6115 173.533 11.8073C174.035 12.003 174.494 12.2968 174.883 12.6715C175.267 13.0524 175.568 13.5092 175.766 14.0129C175.964 14.5166 176.055 15.0562 176.033 15.5971C176.048 16.1387 175.95 16.6774 175.743 17.1784C175.537 17.6793 175.229 18.1315 174.837 18.5055C174.448 18.8812 173.988 19.1755 173.485 19.3713C172.981 19.5672 172.443 19.6606 171.903 19.646H169.055L169.106 11.531ZM170.707 18.1519H171.926C172.258 18.1641 172.589 18.1099 172.901 17.9924C173.212 17.8749 173.496 17.6965 173.738 17.4676C173.982 17.2242 174.173 16.9317 174.296 16.6093C174.42 16.2869 174.474 15.9419 174.455 15.5971C174.477 15.2526 174.426 14.9074 174.305 14.5841C174.184 14.2608 173.997 13.9666 173.755 13.7209C173.513 13.493 173.228 13.3156 172.917 13.1991C172.606 13.0826 172.275 13.0293 171.943 13.0422H170.724L170.707 18.1519Z" fill="black"/>
        <path d="M181.16 11.8789V14.7303H180.465V11.8789H179.508V11.2288H182.117V11.8789H181.16Z" fill="black"/>
        <path d="M186.373 14.736H185.683V12.4948L184.629 13.8064L183.576 12.4948V14.736H182.869V11.2288H183.279L184.612 12.8997L185.945 11.2288H186.356L186.373 14.736Z" fill="black"/>
    </symbol>
    <symbol xmlns="http://www.w3.org/2000/svg" id="plus" viewBox="0 0 18 18">
        <path d="M16.9999 10.0001H9.99996V17C9.99996 17.5523 9.55225 18 8.99995 18C8.44764 18 7.99993 17.5523 7.99993 17V10H1.00002C0.447713 10.0001 0 9.55236 0 9.00005C0 8.44775 0.447713 8.00004 1.00002 8.00004H7.99999V1.00006C7.99999 0.447763 8.4477 4.95911e-05 9 4.95911e-05C9.55231 4.95911e-05 10 0.447763 10 1.00006V8.00004H17C17.5523 8.00004 18 8.44775 18 9.00005C18 9.55236 17.5522 10.0001 16.9999 10.0001Z"/>
    </symbol>
    <symbol xmlns="http://www.w3.org/2000/svg" id="minus" viewBox="0 0 18 2">
        <path d="M9.99989 2H16.9998C17.5521 2 17.9999 1.55229 17.9999 0.999991C17.9999 0.447692 17.5522 -1.93119e-05 16.9999 -1.93119e-05H9.99995H7.99993L1.00001 -1.90735e-05C0.44771 -1.90735e-05 0 0.447692 0 0.999991C0 1.55229 0.44771 2 1.00001 1.99994H7.99987L9.99989 2Z"/>
    </symbol>
    <symbol xmlns="http://www.w3.org/2000/svg" id="closeModal" viewBox="0 0 20 20">
        <path d="M11.8323 10.0157L19.6199 2.22785C20.1267 1.72129 20.1267 0.902238 19.6199 0.395672C19.1134 -0.110895 18.2943 -0.110895 17.7877 0.395672L9.9999 8.18351L2.21229 0.395672C1.70548 -0.110895 0.88667 -0.110895 0.380103 0.395672C-0.126701 0.902238 -0.126701 1.72129 0.380103 2.22785L8.16771 10.0157L0.380103 17.8035C-0.126701 18.3101 -0.126701 19.1291 0.380103 19.6357C0.632556 19.8884 0.964494 20.0153 1.29619 20.0153C1.6279 20.0153 1.9596 19.8884 2.21229 19.6357L9.9999 11.8479L17.7877 19.6357C18.0404 19.8884 18.3721 20.0153 18.7038 20.0153C19.0355 20.0153 19.3672 19.8884 19.6199 19.6357C20.1267 19.1291 20.1267 18.3101 19.6199 17.8035L11.8323 10.0157Z"/>
    </symbol>
    <symbol xmlns="http://www.w3.org/2000/svg" id="menuBurger" viewBox="0 0 30 24">
        <path d="M28.75 20H15.25C14.5597 20 14 20.5596 14 21.25C14 21.9404 14.5596 22.5 15.25 22.5H28.75C29.4403 22.5 30 21.9404 30 21.25C30 20.5596 29.4404 20 28.75 20Z"/>
        <path d="M28.75 11H1.25C0.559644 11 0 11.5596 0 12.25C0 12.9404 0.559645 13.5 1.25 13.5H28.75C29.4404 13.5 30 12.9404 30 12.25C30 11.5596 29.4404 11 28.75 11Z"/>
        <path d="M28.75 1.5H1.25C0.559644 1.5 0 2.05964 0 2.75C0 3.44036 0.559645 4 1.25 4H28.75C29.4404 4 30 3.44036 30 2.75C30 2.05964 29.4404 1.5 28.75 1.5Z"/>
    </symbol>
    <symbol xmlns="http://www.w3.org/2000/svg" id="rezart_logo" viewBox="0 0 446.4 267.24">
        <path d="M442.14,240.64,302,.56a1.51,1.51,0,0,0-2.33,0C298.37,1.81,170.74,221,170.74,221l-30.56-51.21.33-1.33S195.32,152,195.32,92.33,135.7,15.52,122.58,15.52H0L20.6,52.76h93.34s47.5-3.56,47.5,40.57-36.19,44.89-42.52,44.89H80.39l70.09,117.71s6.49,11.31,16.94,11.31,14.64-5.43,18.93-11.64S300.63,64.4,300.63,64.4l84.71,141.65L299,156.18,331.19,212l89,51.21s14.13,5.79,22.59-2.33S442.14,240.64,442.14,240.64ZM37.2,158.17,1.33,96.32v149s-.14,14.63,18.27,14.63,17.94-15.3,17.94-15.3Z" />
    </symbol>
    <symbol xmlns="http://www.w3.org/2000/svg" id="bigArrow" viewBox="0 0 23 9">
        <path d="M22.7685 3.94105L19.7096 0.882128C19.4009 0.57347 18.9003 0.57347 18.5917 0.882128C18.283 1.19085 18.283 1.6913 18.5917 2.00002L20.3012 3.70954L0.790457 3.70954C0.353935 3.70954 0 4.06347 0 4.5C0 4.93645 0.353935 5.29045 0.790457 5.29045H10.5458L20.3012 5.29045L18.5918 6.99997C18.2831 7.30869 18.2831 7.80914 18.5918 8.11787C18.7461 8.2721 18.9485 8.34937 19.1507 8.34937C19.353 8.34937 19.5553 8.2721 19.7097 8.11787L22.7685 5.05894C23.0772 4.75022 23.0772 4.24977 22.7685 3.94105Z"/>
    </symbol>
    <symbol xmlns="http://www.w3.org/2000/svg" id="smallArrow" viewBox="0 0 17 9">
        <path d="M16.7685 3.94105L13.7096 0.882128C13.4009 0.57347 12.9003 0.57347 12.5917 0.882128C12.283 1.19085 12.283 1.6913 12.5917 2.00002L14.3012 3.70954L0.790457 3.70954C0.353935 3.70954 0 4.06347 0 4.5C0 4.93645 0.353935 5.29045 0.790457 5.29045H4.54583L14.3012 5.29045L12.5918 6.99997C12.2831 7.30869 12.2831 7.80914 12.5918 8.11787C12.7461 8.2721 12.9485 8.34937 13.1507 8.34937C13.353 8.34937 13.5553 8.2721 13.7097 8.11787L16.7685 5.05894C17.0772 4.75022 17.0772 4.24977 16.7685 3.94105Z"/>
    </symbol>
    <symbol xmlns="http://www.w3.org/2000/svg" id="envelope" viewBox="0 0 24 24">
        <path d="M22.5 3.75H1.5C0.672 3.75 0 4.422 0 5.25V6.1035L12 11.1855L24 6.102V5.25C24 4.422 23.328 3.75 22.5 3.75Z"/>
        <path d="M12.2925 12.6899C12.1995 12.7304 12.099 12.7499 12 12.7499C11.901 12.7499 11.8005 12.7304 11.7075 12.6899L0 7.73242V18.7499C0 19.5779 0.672 20.2499 1.5 20.2499H22.5C23.328 20.2499 24 19.5779 24 18.7499V7.73242L12.2925 12.6899Z"/>
    </symbol>
    <symbol xmlns="http://www.w3.org/2000/svg" id="facebook" viewBox="0 0 24 24">
        <path d="M18.3246 5.92511C18.713 5.92511 19.0278 5.61017 19.0278 5.22198V0.703125C19.0278 0.314758 18.713 0 18.3246 0H13.0525C10.5886 0 8.5838 2.00464 8.5838 4.46869V9.03754H5.67188C5.28351 9.03754 4.96875 9.35229 4.96875 9.74066V14.2593C4.96875 14.6477 5.28351 14.9625 5.67188 14.9625H8.5838V23.2969C8.5838 23.6852 8.89856 24 9.28693 24H13.8058C14.1942 24 14.5089 23.6852 14.5089 23.2969V14.9625H17.4208C17.7561 14.9625 18.0447 14.7259 18.1104 14.3972L19.014 9.87854C19.0554 9.672 19.002 9.45776 18.8685 9.2948C18.7348 9.13202 18.5354 9.03754 18.3246 9.03754H14.5089V5.92511H18.3246Z"/>
    </symbol>
    <symbol xmlns="http://www.w3.org/2000/svg" id="instagram" viewBox="0 0 24 24">
        <path d="M23.9773 7.05607C23.9211 5.78085 23.7149 4.90416 23.4195 4.14449C23.1147 3.33812 22.6459 2.61617 22.0316 2.01602C21.4315 1.40652 20.7048 0.932921 19.9077 0.632936C19.1437 0.337529 18.2715 0.131312 16.9963 0.0750879C15.7116 0.0141019 15.3037 0 12.0453 0C8.78685 0 8.379 0.0141019 7.09903 0.0703262C5.82382 0.126551 4.94712 0.332951 4.18763 0.628174C3.38108 0.932922 2.65914 1.40176 2.05899 2.01602C1.44949 2.61617 0.976072 3.34288 0.675904 4.13991C0.380498 4.90416 0.174281 5.77609 0.118057 7.0513C0.0570706 8.33604 0.0429688 8.7439 0.0429688 12.0023C0.0429688 15.2608 0.0570706 15.6686 0.113295 16.9486C0.169519 18.2238 0.375919 19.1005 0.671326 19.8602C0.976072 20.6666 1.44949 21.3885 2.05899 21.9887C2.65914 22.5982 3.38584 23.0718 4.18287 23.3718C4.94712 23.6672 5.81905 23.8734 7.09445 23.9296C8.37424 23.986 8.78228 23.9999 12.0407 23.9999C15.2992 23.9999 15.707 23.986 16.987 23.9296C18.2622 23.8734 19.1389 23.6672 19.8984 23.3718C21.5113 22.7482 22.7865 21.4729 23.4101 19.8602C23.7053 19.096 23.9117 18.2238 23.968 16.9486C24.0242 15.6686 24.0383 15.2608 24.0383 12.0023C24.0383 8.7439 24.0335 8.33604 23.9773 7.05607ZM21.8161 16.8549C21.7644 18.027 21.5675 18.6599 21.4034 19.0819C21.0002 20.1274 20.1704 20.9572 19.1248 21.3605C18.7028 21.5246 18.0653 21.7215 16.8978 21.7729C15.6319 21.8293 15.2523 21.8433 12.0501 21.8433C8.84784 21.8433 8.46343 21.8293 7.20214 21.7729C6.03003 21.7215 5.3971 21.5246 4.97514 21.3605C4.45484 21.1682 3.98123 20.8634 3.59682 20.4649C3.19831 20.0758 2.89356 19.6069 2.70126 19.0866C2.53717 18.6647 2.34029 18.027 2.28883 16.8596C2.23242 15.5937 2.2185 15.2139 2.2185 12.0117C2.2185 8.80946 2.23242 8.42505 2.28883 7.16394C2.34029 5.99183 2.53717 5.3589 2.70126 4.93694C2.89356 4.41645 3.19831 3.94303 3.60158 3.55843C3.99057 3.15992 4.45941 2.85517 4.9799 2.66306C5.40186 2.49896 6.03956 2.30209 7.2069 2.25044C8.47277 2.19422 8.8526 2.18011 12.0546 2.18011C15.2616 2.18011 15.6413 2.19422 16.9026 2.25044C18.0747 2.30209 18.7076 2.49896 19.1296 2.66306C19.6499 2.85517 20.1235 3.15992 20.5079 3.55843C20.9064 3.94761 21.2111 4.41645 21.4034 4.93694C21.5675 5.3589 21.7644 5.99641 21.8161 7.16394C21.8723 8.42981 21.8864 8.80946 21.8864 12.0117C21.8864 15.2139 21.8723 15.589 21.8161 16.8549Z"/>
        <path d="M12.0442 5.83691C8.64049 5.83691 5.87891 8.59832 5.87891 12.0022C5.87891 15.406 8.64049 18.1674 12.0442 18.1674C15.448 18.1674 18.2094 15.406 18.2094 12.0022C18.2094 8.59832 15.448 5.83691 12.0442 5.83691ZM12.0442 16.0014C9.83604 16.0014 8.04492 14.2105 8.04492 12.0022C8.04492 9.79386 9.83604 8.00293 12.0442 8.00293C14.2525 8.00293 16.0434 9.79386 16.0434 12.0022C16.0434 14.2105 14.2525 16.0014 12.0442 16.0014Z"/>
        <path d="M19.8925 5.59361C19.8925 6.38844 19.248 7.03292 18.453 7.03292C17.6581 7.03292 17.0137 6.38844 17.0137 5.59361C17.0137 4.79859 17.6581 4.1543 18.453 4.1543C19.248 4.1543 19.8925 4.79859 19.8925 5.59361Z"/>
    </symbol>
    <symbol xmlns="http://www.w3.org/2000/svg" id="telegram" viewBox="0 0 24 20">
        <path d="M9.41718 13.1804L9.02018 18.7644C9.58818 18.7644 9.83418 18.5204 10.1292 18.2274L12.7922 15.6824L18.3102 19.7234C19.3222 20.2874 20.0352 19.9904 20.3082 18.7924L23.9302 1.82043L23.9312 1.81943C24.2522 0.323429 23.3902 -0.261571 22.4042 0.105429L1.11418 8.25643C-0.338822 8.82043 -0.316822 9.63043 0.867178 9.99743L6.31018 11.6904L18.9532 3.77943C19.5482 3.38543 20.0892 3.60343 19.6442 3.99743L9.41718 13.1804Z"/>
    </symbol>
    <symbol xmlns="http://www.w3.org/2000/svg" id="user" viewBox="0 0 16 16"><path d="M4.44349 3.96652C4.44349 5.99155 6.03542 7.63309 7.99909 7.63309C9.96276 7.63309 11.5547 5.99155 11.5547 3.96652C11.5547 1.94148 9.96276 0.299805 7.99909 0.299805C6.03542 0.299805 4.44349 1.94148 4.44349 3.96652Z"/>
        <path d="M4.97813 9.1001H11.0227C12.885 9.1001 14.4004 10.6628 14.4004 12.5834V15.1501C14.4004 15.4537 14.1615 15.7001 13.8671 15.7001H2.13372C1.83932 15.7001 1.60039 15.4537 1.60039 15.1501V12.5834C1.60039 10.6628 3.11576 9.1001 4.97813 9.1001Z"/>
    </symbol>
    <symbol xmlns="http://www.w3.org/2000/svg" id="phone" viewBox="0 0 16 16">
        <path d="M14.7162 10.5022C13.7366 10.5022 12.7747 10.349 11.8633 10.0478C11.4167 9.89542 10.8676 10.0352 10.595 10.3151L8.796 11.6732C6.70963 10.5595 5.42446 9.27475 4.32596 7.20404L5.64408 5.45188C5.98654 5.10988 6.10938 4.61029 5.96221 4.14154C5.65971 3.22529 5.50604 2.26392 5.50604 1.28392C5.50608 0.575958 4.93013 0 4.22221 0H1.28387C0.575958 0 0 0.575958 0 1.28387C0 9.39846 6.60158 16 14.7162 16C15.4241 16 16 15.424 16 14.7161V11.786C16 11.0781 15.424 10.5022 14.7162 10.5022Z"/>
    </symbol>
    <symbol xmlns="http://www.w3.org/2000/svg" id="icon1" viewBox="0 0 24 24">
        <path d="M17.533 11.3321C17.2203 8.78074 15.2067 6.77214 12.6545 6.46591C12.4347 6.44083 12.2137 6.42827 11.9925 6.42822C9.73701 6.43169 7.70611 7.79482 6.84839 9.88089C5.99068 11.967 6.47541 14.3644 8.07619 15.9535C8.92744 16.7687 9.41493 17.8921 9.42886 19.0706V19.7144H14.5717V19.0673C14.5756 17.9111 15.046 16.8053 15.8763 16.0006C17.1304 14.7906 17.7438 13.0622 17.533 11.3323V11.3321H17.533Z"/>
        <path d="M12.0013 24.0002C12.546 23.9996 13.0314 23.6564 13.2136 23.1431H10.7891C10.9712 23.6564 11.4566 23.9996 12.0013 24.0002Z"/>
        <path d="M9.85742 21.8575C9.85775 22.0941 10.0494 22.2858 10.286 22.2861H13.7146C13.9511 22.2858 14.1428 22.0941 14.1431 21.8575V20.5718H9.85742V21.8575Z"/>
        <path d="M11.9997 3.85716C12.4731 3.85716 12.8569 3.47339 12.8569 3V0.857156C12.8569 0.383766 12.4731 0 11.9997 0C11.5263 0 11.1426 0.383766 11.1426 0.857156V3C11.1426 3.47339 11.5263 3.85716 11.9997 3.85716Z"/>
        <path d="M4.7662 5.97844C5.10539 6.30239 5.6393 6.30239 5.97848 5.97844C6.13927 5.8177 6.22959 5.59964 6.22959 5.3723C6.22959 5.14495 6.13927 4.92689 5.97848 4.76616L4.46316 3.25111C4.30247 3.09033 4.08445 3 3.85716 3C3.62986 3 3.41184 3.09033 3.25111 3.25111C3.09033 3.4118 3 3.62981 3 3.85716C3 4.0845 3.09033 4.30247 3.25111 4.4632L4.7662 5.97844Z"/>
        <path d="M3.85716 12.0002C3.85716 11.5268 3.47339 11.1431 3 11.1431H0.857156C0.383953 11.1435 0.00046875 11.527 0 12.0002C0.00046875 12.4734 0.383953 12.8569 0.857156 12.8574H3C3.47339 12.8574 3.85716 12.4736 3.85716 12.0002Z"/>
        <path d="M5.59477 17.7981C5.29852 17.719 4.98258 17.804 4.76616 18.0213L3.25111 19.5366C3.09033 19.6973 3 19.9153 3 20.1426C3 20.37 3.09033 20.5879 3.25111 20.7487C3.59021 21.0726 4.12407 21.0726 4.46316 20.7487L5.97845 19.2336C6.19567 19.0172 6.28079 18.7013 6.20162 18.405C6.12245 18.1088 5.89102 17.8773 5.59477 17.7981Z"/>
        <path d="M19.234 18.0218C19.0176 17.8046 18.7017 17.7194 18.4054 17.7986C18.1092 17.8778 17.8778 18.1092 17.7986 18.4054C17.7194 18.7017 17.8045 19.0176 18.0218 19.234L19.5371 20.7491C19.8762 21.073 20.41 21.073 20.7491 20.7491C20.9099 20.5884 21.0002 20.3704 21.0002 20.143C21.0002 19.9157 20.9099 19.6977 20.7491 19.537L19.234 18.0218Z"/>
        <path d="M23.1426 11.1431H20.9997C20.5263 11.1431 20.1426 11.5268 20.1426 12.0002C20.1426 12.4736 20.5263 12.8574 20.9997 12.8574H23.1426C23.616 12.8574 23.9997 12.4736 23.9997 12.0002C23.9997 11.5268 23.616 11.1431 23.1426 11.1431Z"/>
        <path d="M19.2349 5.97842L20.75 4.46314C20.9665 4.24662 21.0511 3.93106 20.9718 3.63528C20.8925 3.3395 20.6615 3.1085 20.3657 3.02923C20.07 2.94997 19.7544 3.03453 19.5379 3.25104L18.0226 4.76609C17.8618 4.92683 17.7715 5.14489 17.7715 5.37223C17.7715 5.59958 17.8618 5.81764 18.0226 5.97837C18.3618 6.30237 18.8958 6.30237 19.2349 5.97842Z"/>
    </symbol>
    <symbol xmlns="http://www.w3.org/2000/svg" id="icon2" viewBox="0 0 24 24">
        <path d="M15 4.32514V4.31914L19.491 6.33064L24 4.64014L12 0.140137L0 4.64014L12 9.14014L16.491 7.45564L12 5.60464V5.60014L15 4.32514Z"/>
        <path d="M0 6.14014V19.6401L11.25 23.8596V10.3596L0 6.14014ZM6 19.6896L3 18.5646V16.9641L6 18.0891V19.6896Z"/>
        <path d="M19.5 7.82764V11.5851L16.5 12.7101V8.95264L12.75 10.3596V23.8596L24 19.6401V6.14014L19.5 7.82764Z"/>
    </symbol>
    <symbol xmlns="http://www.w3.org/2000/svg" id="icon3" viewBox="0 0 24 24">
        <path d="M6.64516 14.7892L5.58932 21.2716C5.50515 21.7865 6.05432 22.173 6.50849 21.9201L12.0002 18.8804L17.4919 21.9209C17.9419 22.1713 18.4961 21.7924 18.4111 21.2724L17.3552 14.79L21.8219 10.2046C22.1761 9.84159 21.9728 9.22564 21.4694 9.14886L15.3211 8.20825L12.5652 2.32925C12.3594 1.89025 11.6402 1.89025 11.4344 2.32925L8.67934 8.20742L2.53096 9.14802C2.02596 9.22564 1.82429 9.84075 2.17846 10.2038L6.64516 14.7892Z"/>
    </symbol>
    <symbol xmlns="http://www.w3.org/2000/svg" id="icon4" viewBox="0 0 24 24">
        <path d="M22.8123 11.51L16.2127 4.17705C16.0719 4.02159 15.8753 3.93359 15.6671 3.93359H11.2673C10.9784 3.93359 10.7159 4.10372 10.5971 4.3677C10.4798 4.63316 10.5282 4.94261 10.7218 5.15673L16.88 11.9998L10.7218 18.8415C10.5282 19.0571 10.4783 19.3665 10.5971 19.6305C10.7159 19.896 10.9784 20.0661 11.2673 20.0661H15.6671C15.8753 20.0661 16.0719 19.9766 16.2127 19.8241L22.8123 12.4911C23.0631 12.2125 23.0631 11.7872 22.8123 11.51Z"/>
        <path d="M13.2791 11.51L6.67946 4.17705C6.53867 4.02159 6.34215 3.93359 6.13389 3.93359H1.73412C1.4452 3.93359 1.18268 4.10372 1.06389 4.3677C0.946561 4.63316 0.994958 4.94261 1.18855 5.15673L7.34676 11.9998L1.18855 18.8415C0.994958 19.0571 0.945094 19.3665 1.06389 19.6305C1.18268 19.896 1.4452 20.0661 1.73412 20.0661H6.13389C6.34215 20.0661 6.53867 19.9766 6.67946 19.8241L13.2791 12.4911C13.5299 12.2125 13.5299 11.7872 13.2791 11.51Z"/>
    </symbol>
    <symbol xmlns="http://www.w3.org/2000/svg" id="icon5" viewBox="0 0 20 20">
        <path d="M19.9655 0.280909C19.8955 0.110923 19.7291 0 19.5455 0C1.90458 0 0 7.31093 0 10.4545C0 11.5855 0.250909 12.6418 0.746379 13.5936C0.822742 13.7409 0.973638 13.8345 1.13911 13.8382C1.29546 13.8336 1.46003 13.7555 1.54274 13.6109C2.73367 11.5527 6.10637 6.47272 11.6764 3.77365C11.9046 3.66456 12.1773 3.75819 12.2855 3.98276C12.3946 4.20912 12.3 4.48185 12.0746 4.59094C11.6546 4.79459 11.251 5.0164 10.8555 5.24638C10.7046 5.33455 10.5582 5.42822 10.4101 5.52001C10.1873 5.6582 9.96734 5.79908 9.75278 5.94457C9.53916 6.08822 9.32822 6.23549 9.12095 6.38639C9.05639 6.43364 8.9946 6.48184 8.93093 6.53004C3.38728 10.6609 0 17.2509 0 19.5455C0 19.7964 0.203651 20.0001 0.45456 20.0001C0.70547 20.0001 0.90912 19.7964 0.90912 19.5455C0.90912 18.8127 1.40821 17.3273 2.35274 15.5555C3.72367 16.6764 5.5682 17.2728 7.72731 17.2728C13.5646 17.2728 14.7873 11.7182 15.4437 8.73368C16.3273 4.71729 18.2719 2.37094 19.8664 0.775484C19.9973 0.645469 20.0355 0.450895 19.9655 0.280909Z"/>
    </symbol>
    <symbol xmlns="http://www.w3.org/2000/svg" id="icon6" viewBox="0 0 24 24">
        <path d="M16.2792 17.1939L13.3691 16.1026C13.3509 16.0954 13.3334 16.0866 13.3166 16.0764L10.0729 14.2764L8.79039 14.5951L7.55664 15.5214L8.21664 17.8314L9.30039 19.2751C9.34212 19.3311 9.36738 19.3976 9.37335 19.4672C9.37931 19.5368 9.36573 19.6066 9.33414 19.6689L8.59914 21.1426L8.24289 22.2076C9.97892 22.6625 11.8116 22.5854 13.5032 21.9863C15.1949 21.3872 16.6676 20.2937 17.7304 18.8476L16.2792 17.1939Z"/>
        <path d="M20.25 6C21.4926 6 22.5 4.99264 22.5 3.75C22.5 2.50736 21.4926 1.5 20.25 1.5C19.0074 1.5 18 2.50736 18 3.75C18 4.99264 19.0074 6 20.25 6Z"/>
        <path d="M18.6331 6.27371C18.2686 6.04039 17.9589 5.73078 17.7256 5.36621L16.6719 7.32747L18.6331 6.27371Z"/>
        <path d="M19.0581 16.275L17.7194 14.1338L16.4031 13.1475L14.3106 13.4963C14.2175 13.5107 14.1223 13.4893 14.0444 13.4363L11.7944 11.9363C11.7428 11.9023 11.7004 11.8561 11.671 11.8018C11.6415 11.7475 11.6259 11.6868 11.6256 11.625V9.37502C11.6263 9.34987 11.6288 9.3248 11.6331 9.30002L11.9931 7.50002L11.6331 5.70002C11.6191 5.6312 11.6243 5.55984 11.6481 5.49377L11.9744 4.62377C10.6731 4.40991 9.34079 4.48286 8.07063 4.83752L8.61062 6.64127C8.62553 6.69622 8.62936 6.75358 8.62188 6.81002L8.24687 9.06002C8.23063 9.14906 8.1843 9.22982 8.11562 9.28877L6.00063 11.0513V13.125C5.9999 13.1657 5.99359 13.2061 5.98187 13.245L5.23187 15.495C5.20593 15.5713 5.15593 15.6371 5.08938 15.6825L2.45312 17.5275C3.50085 19.6182 5.32022 21.2197 7.52688 21.9938L7.89437 20.88C7.90103 20.8634 7.90854 20.8471 7.91688 20.8313L8.56188 19.5413L7.57563 18.225C7.54825 18.1878 7.52791 18.1458 7.51563 18.1013L6.76563 15.4763C6.74456 15.4036 6.7462 15.3262 6.77033 15.2545C6.79445 15.1828 6.83992 15.1202 6.90062 15.075L8.40062 13.95C8.44086 13.9199 8.48678 13.8982 8.53563 13.8863L10.0356 13.5113C10.1283 13.4881 10.2263 13.5015 10.3094 13.5488L13.6581 15.4088L16.6319 16.5225C16.6895 16.5451 16.741 16.5811 16.7819 16.6275L18.1656 18.2063C18.5389 17.6003 18.8385 16.952 19.0581 16.275Z"/>
        <path d="M19.5 13.5C19.4977 11.4073 18.7656 9.38099 17.43 7.77L15.9263 8.58C15.8721 8.60924 15.8116 8.62469 15.75 8.625C15.6505 8.62461 15.5551 8.58562 15.4838 8.51625C15.427 8.45911 15.3902 8.38523 15.3787 8.30554C15.3672 8.22585 15.3817 8.14458 15.42 8.07375L16.23 6.56625C15.2054 5.71842 14.0052 5.10875 12.7162 4.78125L12.39 5.655L12.7425 7.425C12.7538 7.47437 12.7538 7.52563 12.7425 7.575L12.375 9.4125V11.4225L14.3362 12.7312L16.44 12.3787C16.5407 12.3641 16.6431 12.3897 16.725 12.45L18.225 13.575C18.2618 13.6031 18.2936 13.6374 18.3187 13.6762L19.32 15.2775C19.4383 14.6924 19.4986 14.097 19.5 13.5Z"/>
        <path d="M5.24983 10.875C5.24953 10.8199 5.26149 10.7654 5.28483 10.7154C5.30818 10.6655 5.34234 10.6214 5.38483 10.5862L7.52608 8.80123L7.86733 6.77248L7.35733 5.07373C6.23429 5.49222 5.20615 6.1308 4.33323 6.95199C3.46031 7.77318 2.7602 8.76045 2.27397 9.85586C1.78774 10.9513 1.52519 12.1328 1.50173 13.331C1.47826 14.5293 1.69436 15.7201 2.13733 16.8337L4.55983 15.1387L5.24983 13.065V10.875Z"/>
    </symbol>

</svg>